<?xml version="1.0" encoding="utf-8"?>
<!-- Generator: Adobe Illustrator 26.4.1, SVG Export Plug-In . SVG Version: 6.00 Build 0)  -->
<svg version="1.1" id="Calque_1" xmlns="http://www.w3.org/2000/svg" xmlns:xlink="http://www.w3.org/1999/xlink" x="0px" y="0px"
	 viewBox="0 0 1366 768" style="enable-background:new 0 0 1366 768;" xml:space="preserve">
<style type="text/css">
	.st0{fill:#8D95A0;}
	.st1{fill:#00FFFF;}
	.st2{fill:#29ABE2;}
	.st3{fill:#0071BC;}
	.st4{fill:#FCFBFA;}
	.st5{fill:#CBE086;}
</style>
<path class="st0" d="M1365.15,768c-0.05-1.58-0.16-3.16-0.16-4.73c-0.01-252.57,0-505.14-0.02-757.71c0-5.09,1.2-5.15-5.03-5.15
	C908.09,0.4,456.25,0.4,4.4,0.42c-1.46,0-2.91,0.21-4.37,0.33c0.15-0.21-0.34-0.71,0.34-0.69c0.9,0.03,1.81,0.01,2.71,0.01
	c453.16,0,906.32,0,1359.47-0.07c2.65,0,3.35,0.39,3.35,3.24c-0.09,253.9-0.08,507.8-0.12,761.71
	C1365.79,765.94,1366.57,767.25,1365.15,768z"/>
<path class="st1" d="M668.35,640.74c-187.16,0-374.33,0-561.49,0c-26.11,0-52.22-0.04-78.32,0.07c-3.05,0.01-4.4-0.75-3.97-3.95
	c0.43-3.2-1.4-7.36,0.85-9.41c2.04-1.86,6.07-0.53,9.22-0.53c376.36-0.02,752.72-0.02,1129.08-0.02c6.83,0,6.84,0,6.85-6.67
	c0.02-65.91,0.01-131.83,0.11-197.74c0-3-0.89-4.02-3.83-4.53c-9.98-1.72-18.19-6.99-25.88-13.36
	c-15.24-12.64-24.54-29.3-32.19-47.06c-11.5-26.73-17.29-54.86-20.08-83.7c-2.99-30.88-2.12-61.65,3-92.26
	c4.98-29.75,13.45-58.31,29.34-84.29c7.43-12.15,16.92-22.37,29-29.85c18.74-11.6,38.27-10.07,56.05,4.01
	c13.98,11.07,23.32,25.67,31.01,41.46c7.05,14.48,11.79,29.78,16.11,45.27c9.73,34.94,11.27,70.55,9.21,106.45
	c-0.88,15.46-2.63,30.92-6.49,45.92c-6.78,26.37-14.52,52.46-30.32,75.23c-8.21,11.84-17.76,22.25-31.07,28.57
	c-4.63,2.2-9.48,3.89-14.58,4.17c-3.36,0.18-3.69,1.7-3.68,4.48c0.12,24.76,0.12,49.52,0.14,74.28
	c0.05,41.72,0.09,83.44,0.14,125.16c0.01,4.46,0.01,4.47,4.33,4.47c42.27,0,84.54,0,126.81,0.01c4.66,0,4.76,0.01,4.63,4.46
	c-0.09,3,1.37,6.83-0.71,8.79c-1.89,1.78-5.62,0.54-8.54,0.54c-211.58,0.02-423.15,0.02-634.73,0.02
	C668.35,640.73,668.35,640.73,668.35,640.74z"/>
<path class="st1" d="M341.21,360.33c-7.2-7.55-13.22-15.99-18.7-24.83c-0.73-1.49-0.54-3.08-0.54-4.66
	c0.01-34.99,0.03-69.98,0.04-104.97c0-4.4-0.11-4.38-4.59-4.58c-4.49-0.2-9.02,0.7-13.46-0.55c13.23-52.56,45.25-89.63,94.34-111.31
	c45.14-19.93,91.28-20.05,137.44-2.42c23.86,9.11,44.19,23.37,61.63,41.9c1.16,1.23,2.15,2.6,3.23,3.91
	c-3.69-0.48-7.36-1.17-11.07-1.42c-25.52-1.73-48.15,5.94-67.91,21.88c-16.89,13.62-29.34,30.83-38.45,50.45
	c-2.02,4.36-4.88,8.43-5.31,13.43c-7.02,13.48-12.57,27.51-16.34,42.26c-5.54,21.68-8.22,43.71-8.82,66.04
	c-0.45,16.64,0.34,33.19,3.14,49.64c1.2,7.04,3.44,13.81,4.85,20.78c-9.39-0.31-18.63-1.81-27.86-3.43
	c-0.66-1.35-0.81-2.8-0.99-4.27c-5.1-41.68-9.41-83.45-15.18-125.04c-2.69-19.35-4.74-38.79-6.93-58.21
	c-0.31-2.75-1.36-3.64-4.04-3.62c-14.57,0.08-29.15,0.11-43.72-0.03c-3.18-0.03-4.28,1.06-4.62,4.19
	c-1.97,18.42-4.1,36.82-6.25,55.21c-2.33,19.97-4.62,39.95-7.16,59.9C343.11,347.16,343.01,353.87,341.21,360.33z"/>
<path class="st2" d="M477.85,237.17c0.44-5,3.29-9.08,5.31-13.43c9.11-19.62,21.56-36.83,38.45-50.45
	c19.76-15.94,42.38-23.61,67.91-21.88c3.7,0.25,7.38,0.94,11.07,1.42c1.03,0.44,2.02,1,3.09,1.29
	c19.99,5.49,36.04,17.04,50.24,31.82c10.06,10.46,17.78,22.36,24.26,35.19c-4.74,0.07-9.48,0.15-14.23,0.2
	c-5.08,0.05-5.43,0.31-5.37,5.38c0.25,21.25,0.15,42.49,0.41,63.74c0.53,43.97,0.3,87.95,0.38,131.93c0.01,3.5-0.09,7-0.13,10.51
	c-1.88,1.79-3.75,3.58-5.63,5.36c-0.59-1.4-0.34-2.9-0.48-4.35c-1.15-12.01-1.36-24.14-4.15-35.95
	c-3.47-14.69-9.61-27.9-20.81-38.46c-5.72-5.4-12.28-9.57-18.79-13.85c-1.54-1.01-3.07-2.02-3.06-4.15
	c0.03-3.5-0.23-7.05,0.23-10.49c0.44-3.3,0.97-6.73,3.42-9.41c1.7-1.86,3.47-2.26,5.7-0.92c2.79,1.67,4.79,4.09,6.68,6.65
	c5.07,6.84,9.15,14.25,12.59,22.03c0.46,1.03,0.63,2.41,2.36,2.9c0.4-1.91,0.9-3.64,1.12-5.4c1.28-10.31,2.5-20.63,3.73-30.95
	c1.06-8.97,2.1-17.95,3.15-26.93c1.46-12.44,2.92-24.89,4.38-37.33c0.2-1.74-0.07-3.47-1.02-4.9
	c-7.39-11.22-15.53-21.69-28.11-27.65c-5.72-2.71-11.6-2.72-17.49-0.99c-7.76,2.29-13.03,7.83-17.64,14.14
	c-10.41,14.23-16.1,30.53-20.31,47.36c-7.36,29.47-10.08,59.42-8.31,89.76c1.01,17.21,3.37,34.17,9.66,50.37
	c4.89,12.6,12.11,23.44,24.8,29.21c9.52,4.33,13.53,11.04,11.76,21.29c-6.37,1.57-12.85,2.39-19.38,2.78
	c-4.14-5.4-7.11-11.47-9.87-17.64c-2.22-4.95-4.33-9.94-6.49-14.91c-1.33,4.01-1.83,7.87-2.37,11.74
	c-0.86,6.23-1.25,12.52-2.64,18.67c-3.43-0.97-6.85-1.95-10.28-2.92c-0.9-19.62-1.87-39.23-4.11-58.75
	c-1.87-16.29-7.32-31.07-18.07-43.74c-6.68-7.87-14.78-13.88-23.55-19.12c-1.56-0.93-3.42-1.74-3.5-3.81
	c-0.25-6.31-0.61-12.69,2.12-18.63c1.84-4.02,4.66-4.64,8.12-1.87c4.28,3.43,7.58,7.73,10.26,12.48c2.94,5.21,5.84,10.45,8.18,15.97
	c0.35,0.81,0.7,1.83,1.78,1.79c1.07-0.04,0.99-1.06,1.09-1.81c1.47-10.94,2.92-21.88,4.54-32.8c3.02-20.31,4.98-40.77,7.49-61.16
	c0.6-4.9,0.1-9.26-3.14-13.34c-5.57-7.01-11.65-13.51-18.54-19.19c-4.41-3.63-9.59-5.99-15.32-6.71c-8.09-1.01-14.7,2.23-20.7,7.37
	C484.37,228.28,481.61,233.14,477.85,237.17z"/>
<path class="st3" d="M477.85,237.17c3.77-4.02,6.52-8.88,10.78-12.53c6-5.14,12.61-8.39,20.7-7.37c5.73,0.72,10.91,3.08,15.32,6.71
	c6.89,5.67,12.97,12.18,18.54,19.19c3.24,4.08,3.74,8.44,3.14,13.34c-2.5,20.39-4.47,40.85-7.49,61.16
	c-1.62,10.92-3.08,21.86-4.54,32.8c-0.1,0.75-0.02,1.78-1.09,1.81c-1.08,0.04-1.44-0.98-1.78-1.79c-2.34-5.52-5.24-10.76-8.18-15.97
	c-2.68-4.76-5.98-9.06-10.26-12.48c-3.46-2.77-6.28-2.15-8.12,1.87c-2.72,5.94-2.37,12.32-2.12,18.63c0.08,2.08,1.95,2.88,3.5,3.81
	c8.77,5.24,16.86,11.25,23.55,19.12c10.76,12.67,16.2,27.44,18.07,43.74c2.24,19.52,3.21,39.14,4.11,58.75
	c-1,1.67-0.59,3.53-0.61,5.3c-0.18,16.88-1.69,33.63-5.19,50.15c-1.66,7.84-3.35,15.79-6.78,23.04
	c-5.49,11.59-10.89,23.33-20.73,32.2c-12.88,11.6-28.18,13.13-43.02,4.08c-9.56-5.82-16.73-14.03-22.99-23.14
	c-0.77-1.12-1.51-2.25-2.3-3.35c-0.17-0.24-0.51-0.36-1.22-0.83c0.76,6.64,1.41,12.86,2.2,19.07c0.88,6.88,0.93,6.74-6.09,7.02
	c-12.99,0.52-25.98,0.4-38.97,0.5c-4.76,0.04-4.68-0.06-5.15-4.92c-1.11-11.35-2.42-22.69-3.45-34.05
	c-0.28-3.09-1.61-3.96-4.53-3.87c-5.76,0.19-11.53,0.18-17.28,0.02c-2.78-0.08-3.81,0.99-3.96,3.68c-0.67,11.51-1.47,23-2.21,34.51
	c-0.29,4.58-0.32,4.64-5,4.64c-15.03,0.01-30.05-0.06-45.08,0.07c-3.1,0.03-3.85-0.99-3.48-3.98c2.96-24.33,5.79-48.68,8.67-73.02
	c4.02-33.99,8.07-67.98,12.07-101.97c1.54-13.12,2.97-26.26,4.42-39.4c0.12-1.11-0.04-2.25-0.07-3.37
	c1.8-6.46,1.91-13.16,2.74-19.75c2.53-19.95,4.83-39.92,7.16-59.9c2.14-18.4,4.27-36.8,6.25-55.21c0.33-3.13,1.44-4.22,4.62-4.19
	c14.57,0.14,29.14,0.11,43.72,0.03c2.67-0.02,3.73,0.87,4.04,3.62c2.2,19.42,4.25,38.86,6.93,58.21
	c5.78,41.6,10.09,83.37,15.18,125.04c0.18,1.46,0.33,2.92,0.99,4.27c-0.38,1.35-0.07,2.69,0.09,4.03
	c1.48,12.67,2.98,25.34,4.44,38.01c3.46,30.06,6.9,60.11,10.37,90.17c0.13,1.15,0.18,2.4,1.44,3.6c0.34-1.57,0.68-2.74,0.83-3.94
	c1.03-8.18,2.02-16.36,3.01-24.54c3.03-24.99,6.05-49.99,9.1-74.98c0.13-1.06-0.13-2.74,1.09-2.94c1.38-0.22,1.3,1.55,1.69,2.49
	c5,12.01,10.23,23.89,18.3,34.25c1.88,2.41,3.89,4.74,6.5,6.37c3.57,2.23,6.12,1.34,7.84-2.49c1.57-3.49,1.56-7.25,2.08-10.93
	c1.48-10.43-1.99-17.9-12.07-22.29c-11.39-4.96-18.2-14.45-23.29-25.38c-1.23-2.65-1.9-5.55-3.58-8
	c-1.41-6.97-3.66-13.74-4.85-20.78c-2.79-16.45-3.59-33-3.14-49.64c0.6-22.32,3.28-44.36,8.82-66.04
	C465.28,264.67,470.83,250.65,477.85,237.17z M426.07,576.17c0,0,0-0.01,0-0.01c4.97,0,9.95,0.01,14.92,0
	c4.25-0.01,4.28-0.03,3.81-4.13c-2.23-19.31-4.48-38.61-6.73-57.91c-3.14-26.93-6.05-53.89-9.47-80.79
	c-3.74-29.33-6.25-58.81-10.87-88.05c-2.63-16.62-4.05-33.42-6.01-50.15c-2.48-21.09-4.99-42.18-7.37-63.29
	c-0.27-2.41-1.02-3.23-3.52-3.2c-11.53,0.14-23.05,0.12-34.58,0.03c-2.3-0.02-3.17,0.77-3.41,3.04
	c-1.66,15.73-3.43,31.45-5.16,47.18c-4.07,36.95-8.11,73.9-12.21,110.84c-3.17,28.52-6.44,57.04-9.62,85.56
	c-3.58,32.12-7.08,64.24-10.73,96.35c-0.36,3.14,0.57,3.89,3.56,3.84c9.72-0.16,19.44-0.22,29.16-0.01
	c3.31,0.07,4.19-1.12,4.42-4.22c0.89-12.17,2.07-24.32,3.03-36.49c0.18-2.34,1.1-3,3.37-2.98c10.62,0.1,21.25,0.13,31.87-0.03
	c2.84-0.04,3.58,0.98,3.78,3.65c0.92,12.39,2.16,24.77,3.04,37.16c0.22,3.04,1.4,3.75,4.18,3.64
	C416.34,576.03,421.21,576.17,426.07,576.17z M468.2,469.86c-0.25,0.07-0.5,0.13-0.74,0.2c-0.26,1.55-0.55,3.09-0.77,4.64
	c-3.34,23.49-6.52,47-10.14,70.44c-0.73,4.74,0.1,8.09,3.33,11.55c8.44,9.02,16.83,18.01,28.41,23.17
	c6.42,2.86,12.64,2.76,18.87-0.61c7.15-3.87,11.74-10.07,15.78-16.82c8.37-13.96,12.97-29.49,15.84-45.13
	c7.13-38.87,6.99-77.84-1.69-116.66c-3.93-17.57-12.23-31.9-26.85-42.48c-2.56-1.86-4.9-4.05-7.58-5.7
	c-4.82-2.95-7.19-6.97-7.5-12.7c-0.36-6.71-0.79-13.32,2.13-19.63c3.12-6.74,9.09-9.21,15.97-6.51c5.98,2.35,10.37,6.68,14.31,11.6
	c0.64,0.8,1.04,2.4,2.41,1.97c1.24-0.4,0.96-1.9,1.1-2.97c1.27-9.86,2.66-19.71,3.7-29.6c1.35-12.78,4.04-25.36,5.62-38.1
	c0.36-2.92,0.35-5.73-1.44-8.11c-3.9-5.22-7.16-10.93-11.77-15.63c-4.05-4.12-8.66-7.28-14.43-8.32c-8.62-1.55-15.44,2.2-21.44,7.78
	c-11.24,10.46-17.01,24.05-21.2,38.39c-6.95,23.8-9.88,48.2-10.28,72.93c-0.33,20.4,1.06,40.64,6.01,60.53
	c1.59,6.37,3.78,12.53,6.27,18.6c5.4,13.14,15.91,21.06,27.84,27.52c1.71,0.92,2.85,2.02,3.63,3.75c4.56,10.21,5.03,20.4,0.67,30.88
	c-3.49,8.38-11.24,11.23-18.96,6.46c-5.33-3.3-8.86-8.31-12.21-13.43C471.37,475.25,469.82,472.53,468.2,469.86z"/>
<path class="st3" d="M809,414.18c-1.26,2.23-0.89,3.94-0.89,5.57c-0.04,52.68-0.05,105.37-0.09,158.05
	c-0.01,8.63,0.07,7.05-7.1,7.12c-11.98,0.12-23.96,0.09-35.94,0.15c-5.14,0.02-5.29-0.06-5.31-5.27
	c-0.17-43.98-0.28-87.95-0.51-131.93c-0.39-75.06-0.88-150.13-1.27-225.19c-0.16-30.07-0.16-60.14-0.23-90.22
	c-0.01-4.52,0.02-4.56,4.48-4.57c13-0.02,25.99,0.1,38.99-0.08c3.49-0.05,4.95,1.03,5.49,4.58c3.26,21.1,6.72,42.16,10.13,63.24
	c3.67,22.63,7.39,45.26,11.06,67.89c2.57,15.84,5.08,31.68,7.62,47.52c0.08,0.53,0.25,1.04,0.49,2.05c1.22-1.67,0.84-3.16,0.84-4.51
	c0-54.15-0.03-108.31-0.05-162.46c0-4.86,0.16-9.73-0.02-14.58c-0.1-2.87,1.01-3.7,3.74-3.68c13.11,0.09,26.22,0.11,39.33-0.05
	c3.39-0.04,4.45,1.08,4.44,4.48c-0.05,29.73,0.06,59.47,0.11,89.2c0.12,76.99,0.21,153.98,0.36,230.97
	c0.08,42.06,0.25,84.11,0.38,126.17c0,0.79-0.07,1.59,0,2.37c0.25,2.53-0.94,3.38-3.37,3.36c-9.94-0.07-19.89-0.03-29.84-0.03
	c-3.28,0-6.56-0.11-9.83,0.03c-2.46,0.11-3.39-1.05-3.78-3.29c-2.32-13.47-4.73-26.93-7.09-40.39c-3.6-20.59-7.19-41.17-10.77-61.76
	c-3.59-20.7-7.15-41.41-10.74-62.11C809.56,416.17,809.35,415.54,809,414.18z M765,356.41c0.19,0,0.38,0,0.57,0
	c0,28.83-0.02,57.66,0.01,86.49c0.04,43.53,0.15,87.05,0.12,130.58c0,3.19,0.84,4.34,4.18,4.26c8.81-0.22,17.63-0.08,26.44-0.08
	c4.89,0,4.9,0,4.89-5.02c-0.22-70.43-0.45-140.86-0.68-211.3c-0.02-5.31-0.02-10.63-0.06-15.94c-0.01-1.41,0.3-2.44,1.99-2.51
	c1.56-0.07,2.68,0.32,2.85,2.09c0.04,0.45,0.11,0.9,0.18,1.34c2.43,14.71,4.85,29.42,7.3,44.13c4.24,25.41,8.48,50.81,12.75,76.21
	c6.04,35.98,12.14,71.95,18.1,107.94c0.41,2.48,1.38,3.13,3.72,3.1c8.93-0.11,17.86-0.19,26.78,0.02c3.35,0.08,4.13-1.07,4.12-4.26
	c-0.03-44.43,0.06-88.86,0.13-133.29c0.17-100.05,0.35-200.11,0.53-300.16c0.01-4.54,0.01-4.57-4.47-4.58
	c-8.7-0.02-17.4-0.01-26.11,0c-4.95,0-4.95,0-4.95,5.07c-0.01,77.44-0.01,154.89-0.02,232.33c0,3.05-0.02,6.1,0,9.16
	c0.01,1.46-0.49,2.38-2.13,2.4c-1.53,0.01-3.03,0.12-3.22-2.01c-0.07-0.78-0.32-1.55-0.44-2.33c-4.6-29.93-9.16-59.86-13.79-89.79
	c-4.92-31.82-9.92-63.62-14.87-95.43c-2.86-18.42-5.75-36.84-8.47-55.28c-0.48-3.23-1.71-4.28-5.01-4.19
	c-8.47,0.23-16.95,0.07-25.43,0.06c-5.02-0.01-5.03-0.01-5.03,4.95C765,212.38,765,284.4,765,356.41z"/>
<path class="st3" d="M166.49,440.32c0,0.28-0.04-0.06,0.01-0.4c1.35-10.76-2.91-18.21-12.31-23.8
	c-12.36-7.35-18.72-19.6-23.61-32.59c-6.7-17.78-10.14-36.32-11.92-55.15c-2.45-26.03-3.55-52.11-0.71-78.18
	c2.77-25.43,7.43-50.5,15-74.99c3.78-12.23,8.18-24.18,14.7-35.25c3.35-5.68,7.17-10.99,12.54-14.98c8.29-6.17,16.75-6.4,25.56-0.99
	c6.69,4.11,11.7,9.92,16.4,16c4.7,6.09,8.57,12.74,12.34,19.45c0.97,1.72,0.94,3.45,0.76,5.25c-2.72,26.87-5.47,53.74-8.2,80.6
	c-1.02,10-1.98,20.01-3,30.01c-0.17,1.68,0.4,4.03-2.41,3.98c-2.73-0.04-6.03,1.43-7.49-2.61c-2.12-5.85-4.54-11.59-7.67-16.97
	c-2.19-3.76-4.17-7.78-8.52-9.78c-2.91-1.34-4.73-0.44-6.12,2.16c-1.53,2.86-1.92,6.03-2.28,9.16c-0.66,5.74-0.41,11.51-0.23,17.27
	c0.07,2.31,1.29,3.75,2.99,5.01c10.71,7.97,19.78,17.41,26.56,29.02c8.05,13.76,12.78,28.65,15.11,44.3
	c5.14,34.53,6.6,69.3,5.5,104.15c-0.87,27.73-3.98,55.23-12.68,81.78c-4.71,14.37-10.43,28.32-21.7,38.99
	c-8.69,8.23-18.87,12.31-31,8.61c-6.5-1.98-12.05-5.73-16.99-10.25c-9.28-8.5-16.06-18.9-22.06-29.85c-0.67-1.23-0.9-2.52-0.76-3.92
	c2.03-20.24,4.07-40.48,6.06-60.72c2.01-20.46,3.96-40.94,5.92-61.4c0.15-1.55-0.18-3.56,2.23-3.31c2.32,0.24,5.39-1.55,6.65,2.13
	c2.49,7.27,5.14,14.48,8.43,21.44c2.66,5.62,5.4,11.21,9.6,15.9c1.83,2.04,3.74,4.29,6.83,3.55c3.05-0.73,3.8-3.67,4.63-6.22
	C166.44,452.28,166.3,446.59,166.49,440.32z M133.63,441.25c-1.18,1.18-1.19,2.22-1.3,3.21c-1.04,9.32-2.06,18.64-3.08,27.96
	c-2.2,20.1-4.25,40.22-6.65,60.3c-1.79,15.01-1.99,14.98,7.47,26.92c6.48,8.18,13.24,16.08,22.4,21.42
	c4.24,2.47,8.82,4.12,13.89,3.19c9.66-1.76,15.92-7.98,20.71-16.01c8.29-13.9,12.2-29.36,15.47-44.98
	c4.11-19.61,6.19-39.49,7.34-59.47c2.12-36.87,1.52-73.64-4.44-110.19c-2.01-12.34-5.5-24.19-11.67-35.2
	c-5.29-9.45-12.75-16.99-21.14-23.49c-6.95-5.39-11.07-11.57-11.16-20.67c-0.09-9.18-0.89-18.34,3.49-26.88
	c2.69-5.25,7.11-7.09,12.74-5.42c7.17,2.12,11.02,7.92,14.95,13.59c1.18,1.71,2.19,3.54,3.26,5.29c0.95-0.51,0.83-1.14,0.89-1.65
	c3.33-28.73,6.68-57.46,9.91-86.2c0.36-3.21,1.76-6.57,0.42-9.71c-4.42-10.34-9.64-20.26-18.03-28.01
	c-9.58-8.85-19.79-8.49-29.08,0.67c-5.49,5.41-9.14,12.01-12.31,18.93c-7.61,16.66-12.03,34.29-15.52,52.16
	c-5.02,25.67-7.7,51.61-8.06,77.79c-0.43,30.53,1.57,60.76,10.85,90.12c5.15,16.33,13.44,30.57,28.48,39.48
	c5.86,3.47,8.24,8.2,9.74,14.1c0.31,1.2,0.65,2.4,0.87,3.63c2.3,12.58,1.05,24.6-6.26,35.43c-3.53,5.22-7.88,5.86-13.15,2.41
	c-4.15-2.71-7.05-6.63-9.93-10.55C140.57,453.78,137.25,447.62,133.63,441.25z"/>
<path class="st3" d="M562.26,470.86c1.39-6.15,1.78-12.44,2.64-18.67c0.53-3.86,1.04-7.73,2.37-11.74
	c2.16,4.97,4.28,9.96,6.49,14.91c2.76,6.17,5.73,12.23,9.87,17.64c2.18,4.85,5.66,8.68,9.9,11.71c3.12,2.23,6.19,1.25,7.69-2.29
	c1.64-3.87,2.55-7.94,1.79-12.2c1.77-10.24-2.24-16.96-11.76-21.29c-12.69-5.77-19.9-16.61-24.8-29.21
	c-6.29-16.2-8.65-33.15-9.66-50.37c-1.77-30.34,0.95-60.3,8.31-89.76c4.21-16.83,9.9-33.14,20.31-47.36
	c4.62-6.31,9.88-11.86,17.64-14.14c5.89-1.73,11.78-1.72,17.49,0.99c12.58,5.96,20.71,16.44,28.11,27.65
	c0.95,1.44,1.22,3.16,1.02,4.9c-1.46,12.44-2.92,24.89-4.38,37.33c-1.05,8.98-2.09,17.95-3.15,26.93
	c-1.22,10.32-2.45,20.64-3.73,30.95c-0.22,1.76-0.72,3.49-1.12,5.4c-1.73-0.49-1.9-1.87-2.36-2.9c-3.44-7.78-7.51-15.18-12.59-22.03
	c-1.89-2.56-3.89-4.97-6.68-6.65c-2.23-1.34-4.01-0.94-5.7,0.92c-2.44,2.68-2.97,6.11-3.42,9.41c-0.46,3.45-0.2,6.99-0.23,10.49
	c-0.02,2.13,1.52,3.13,3.06,4.15c6.51,4.28,13.06,8.45,18.79,13.85c11.2,10.56,17.34,23.77,20.81,38.46
	c2.79,11.82,3.01,23.94,4.15,35.95c0.14,1.45-0.11,2.95,0.48,4.35c0.73,12.29,1.27,24.6,0.92,36.91
	c-0.67,23.58-3.27,46.87-11.3,69.24c-4.19,11.68-9.75,22.6-18.53,31.61c-14.66,15.05-33.33,16.25-49.94,3.25
	c-8.48-6.63-15.07-14.88-20.9-23.83c-1.22-1.88-1.01-3.84-0.76-5.88c3.06-25.11,6.11-50.22,9.13-75.33
	C562.35,473.11,562.25,471.98,562.26,470.86z M572.02,469.76c-0.28,0.04-0.56,0.08-0.84,0.12c-0.21,1.18-0.46,2.36-0.62,3.55
	c-1.55,11.19-3.05,22.38-4.62,33.57c-1.93,13.76-3.91,27.51-5.86,41.26c-0.21,1.45-0.48,2.89,0.59,4.2
	c8.24,10.15,17.07,19.66,28.85,25.8c10.52,5.48,19.7,3.96,28.16-4.32c8.38-8.2,13.24-18.49,17.05-29.33
	c7.33-20.85,10.68-42.45,11.62-64.46c1.16-27.31-0.26-54.41-5.92-81.26c-3.52-16.7-11.78-30.11-25.42-40.3
	c-4.25-3.18-8.38-6.52-12.59-9.76c-1.01-0.78-1.92-1.57-2.19-2.89c-1.7-8.38-2.7-16.78,0.37-25.07c2.89-7.8,10-10.67,17.57-7.14
	c5.67,2.64,10.04,6.83,13.72,11.81c0.52,0.7,0.96,1.91,1.89,1.73c1.31-0.25,0.8-1.65,0.92-2.57c1.1-8.28,2.19-16.57,3.23-24.86
	c1.89-15.02,3.76-30.04,5.63-45.06c0.2-1.58,0.39-3.19-0.37-4.66c-4.14-7.97-8.87-15.55-16.09-21.13
	c-6.02-4.65-12.77-6.83-20.33-4.31c-4.21,1.41-7.99,3.68-11.25,6.75c-10.53,9.92-16.51,22.47-20.71,36.01
	c-7.84,25.25-10.85,51.24-11.22,77.56c-0.3,20.97,1.59,41.7,6.87,62.12c5.04,19.48,15.37,34.48,34,43.07c1.58,0.73,2.38,1.99,3,3.48
	c4.29,10.23,5.04,20.42,0.48,30.89c-3.81,8.73-12.02,11.37-19.79,5.84c-3.92-2.79-6.98-6.42-9.61-10.4
	C576.3,476.62,574.18,473.18,572.02,469.76z"/>
<path class="st3" d="M659.23,432.88c0.05-3.5,0.14-7,0.13-10.51c-0.07-43.98,0.15-87.96-0.38-131.93
	c-0.26-21.25-0.16-42.49-0.41-63.74c-0.06-5.07,0.29-5.33,5.37-5.38c4.74-0.05,9.48-0.13,14.23-0.2c2.2,0.77,4.48,0.47,6.72,0.47
	c18.19,0,36.38,0.03,54.57-0.12c3.16-0.03,4.35,0.8,4.35,4.15c-0.08,32.1-0.03,64.2,0.05,96.3c0.01,2.58-0.77,3.6-3.49,3.56
	c-9.04-0.14-18.08,0.05-27.12-0.11c-3-0.05-3.92,0.99-3.83,3.93c0.19,6.44,0.19,12.89,0.01,19.32c-0.09,3.17,0.85,4.43,4.19,4.34
	c7.9-0.19,15.82,0.07,23.72-0.11c3.12-0.07,4.43,0.71,4.42,4.11c-0.12,29.84-0.08,59.68-0.11,89.52c0,4.43-0.07,4.42-4.65,4.43
	c-8.02,0.01-16.05,0.12-24.07-0.01c-2.85-0.04-4.09,0.78-4.02,3.84c0.15,7.12,0.1,14.24-0.03,21.36c-0.05,2.95,1.14,3.98,4.03,3.94
	c9.38-0.1,18.76,0.06,28.13-0.06c2.95-0.04,4.18,0.7,4.17,3.97c-0.11,31.2-0.09,62.39,0,93.59c0.01,3.15-0.79,4.34-4.16,4.32
	c-25.42-0.12-50.85-0.06-76.27-0.07c-4.55,0-4.7-0.15-4.72-4.83c-0.2-46.12-0.37-92.23-0.57-138.35
	C659.5,436.71,659.33,434.79,659.23,432.88z M666.62,401.33c0,34.6,0,69.19,0,103.79c0,22.27,0.02,44.55-0.02,66.82
	c0,2.13,0.04,3.58,2.97,3.56c22.04-0.12,44.08-0.11,66.12-0.04c2.54,0.01,3.56-0.56,3.55-3.36c-0.1-27.13-0.09-54.27-0.01-81.4
	c0.01-2.7-0.85-3.5-3.49-3.47c-10.06,0.12-20.12-0.06-30.17,0.09c-2.75,0.04-3.46-0.92-3.44-3.5c0.09-11.76,0.09-23.52-0.03-35.27
	c-0.03-2.6,0.66-3.54,3.41-3.49c8.59,0.16,17.18-0.05,25.77,0.1c2.74,0.05,3.48-0.93,3.47-3.52c-0.06-26.12-0.07-52.23,0-78.35
	c0.01-2.64-0.84-3.57-3.51-3.53c-8.7,0.14-17.41-0.01-26.11,0.14c-2.69,0.05-3.8-0.58-3.77-3.53c0.13-11.53,0.09-23.06-0.05-34.59
	c-0.03-2.65,0.77-3.55,3.47-3.51c9.38,0.14,18.76-0.09,28.14,0.11c3.31,0.07,4.16-0.98,4.15-4.21c-0.13-27.36-0.14-54.72-0.02-82.08
	c0.02-3.38-1.11-4.13-4.27-4.11c-20.46,0.13-40.91,0.07-61.37,0.07c-4.8,0-4.81,0-4.81,4.69
	C666.61,288.95,666.62,345.14,666.62,401.33z"/>
<path class="st3" d="M303.96,220.74c4.44,1.25,8.97,0.35,13.46,0.55c4.48,0.2,4.59,0.18,4.59,4.58
	c-0.01,34.99-0.03,69.98-0.04,104.97c0,1.57-0.19,3.17,0.54,4.66c-0.91,1.69-0.69,3.54-0.59,5.32c0.14,2.56-0.9,3.48-3.41,3.13
	c-4.7-0.65-9.41-1.19-14.12-1.8c-5.52-0.71-5.53-0.73-5.54,4.71c-0.01,63.29-0.02,126.59-0.03,189.88c0,13.56,0.01,27.13-0.01,40.69
	c-0.01,4.07-0.47,4.58-4.44,4.53c-13.44-0.15-26.89-0.44-40.33-0.46c-3.15-0.01-4.1-1.1-4.09-4.13c0.08-18.08,0.02-36.17,0.02-54.25
	c-0.01-58.43-0.01-116.87-0.01-175.3c0-5.55-0.01-5.61-5.72-5.17c-4.39,0.34-8.76,0.93-13.16,1.26c-4.74,0.35-4.77,0.27-4.8-4.41
	c-0.15-20.68-0.27-41.37-0.42-62.05c-0.13-16.84-0.27-33.68-0.43-50.52c-0.05-5.64-0.07-5.64,5.44-5.64
	c22.82,0.02,45.65,0.04,68.47,0.04C300.89,221.34,302.51,221.65,303.96,220.74z M290.85,454.45c0.2,0,0.41,0,0.61,0
	c0-33.13,0-66.25,0-99.38c0-6.22,0.11-12.44-0.01-18.65c-0.05-2.63,0.87-3.26,3.42-2.94c5.38,0.69,10.83,0.8,16.18,1.63
	c3.41,0.53,4.04-0.68,4.03-3.7c-0.07-33.01-0.09-66.03,0.03-99.04c0.01-3.4-0.95-4.42-4.39-4.39c-24.3,0.15-48.6,0.17-72.9,0.03
	c-3.43-0.02-4.05,1.15-4.03,4.27c0.13,20.58,0.07,41.15,0.08,61.73c0,12.89,0.07,25.78-0.03,38.67c-0.02,2.73,0.76,3.52,3.52,3.11
	c5.47-0.83,10.99-1.31,16.49-1.97c4.25-0.51,4.27-0.54,4.27,3.76c0.01,27.59,0.01,55.18,0.01,82.76c0,50.2-0.01,100.4-0.01,150.6
	c0,4.5,0.01,4.51,4.39,4.51c7.91-0.01,15.82-0.03,23.73-0.04c4.58-0.01,4.6-0.01,4.6-4.6C290.85,532.01,290.85,493.23,290.85,454.45
	z"/>
<path class="st3" d="M947.89,399.12c-13.21,0-26.43-0.07-39.64,0.06c-2.93,0.03-4.01-0.84-3.93-3.85
	c0.17-6.89,0.15-13.78,0.02-20.67c-0.05-2.8,1.21-3.41,3.69-3.38c2.53,0.02,4.08,0.47,3.98,3.52c-0.18,5.08,0.01,10.17-0.13,15.25
	c-0.08,2.77,0.99,3.81,3.78,3.76c6.55-0.13,13.1-0.13,19.65,0.01c2.87,0.06,3.74-1.11,3.67-3.82c-0.13-4.85,0.11-9.72-0.05-14.57
	c-0.1-3.08,1.68-3.11,3.9-3.13c2.36-0.03,3.9,0.38,3.79,3.31c-0.19,4.63,0.05,9.27-0.15,13.89c-0.14,3.21,0.98,4.39,4.26,4.35
	c12.42-0.14,24.85-0.06,37.27-0.06c1.77,0,3.37-0.06,3.39,2.55c0.01,2.67-1.49,2.8-3.51,2.79c-13.33-0.04-26.65-0.02-39.98-0.02
	C947.89,399.1,947.89,399.11,947.89,399.12z"/>
<path class="st3" d="M965.2,479.27c7.56,0,15.12-0.02,22.69,0.02c1.49,0.01,3.35-0.48,3.46,2.04c0.09,2.01-0.8,2.92-2.8,2.89
	c-0.65-0.01-1.46,0.03-1.62,0.87c-0.15,0.8,0.59,1.1,1.1,1.52c8.3,6.92,7.21,16.16-2.67,21.25c-7.87,4.05-16.4,4.75-25.07,3.96
	c-5.18-0.47-10.32-1.29-14.96-3.91c-1.18-0.66-2.37-1.33-3.43-2.15c-6.85-5.29-7-13.1-0.39-18.67c0.66-0.56,1.84-0.87,1.67-1.93
	c-0.19-1.18-1.38-0.98-2.23-1c-2.04-0.04-2.36-1.29-2.32-2.95c0.05-2.05,1.53-1.93,2.88-1.94
	C949.4,479.26,957.3,479.27,965.2,479.27z M965.78,506.49c4.67,0.15,9.27-0.39,13.64-2.06c4.04-1.55,7.08-4.24,7.24-8.88
	c0.15-4.27-2.54-7.01-6.19-8.47c-10.13-4.06-20.45-4.34-30.67-0.32c-3.51,1.38-6.01,4.03-6.16,8.17c-0.15,4.17,2.3,6.64,5.68,8.48
	C954.48,506.2,960.13,506.37,965.78,506.49z"/>
<path class="st3" d="M965.38,531.59c0,3.39,0.07,6.78-0.02,10.16c-0.07,2.55,1.08,3.38,3.52,3.14c4.87-0.48,9.67-1.21,13.79-4.08
	c5.69-3.97,5.74-10.26,0.11-14.28c-1.55-1.1-3.37-1.81-5.04-2.74c-0.95-0.53-2.97-0.27-2.32-2.14c0.54-1.55,1.57-3.06,3.67-2.95
	c5.55,0.27,12.85,6.39,14.28,11.99c1.45,5.66-1.44,11.5-7.32,14.99c-4.89,2.9-10.29,4.11-15.82,4.53c-9,0.68-17.85-0.17-25.93-4.65
	c-4.61-2.56-7.59-6.36-7.55-11.95c0.04-5.4,3.21-8.82,7.57-11.19c5.68-3.1,11.94-3.94,18.34-4c2.11-0.02,2.71,1.14,2.69,3.02
	c-0.04,3.39-0.01,6.78-0.01,10.16C965.34,531.59,965.36,531.59,965.38,531.59z M958.84,534.65c0,0-0.01,0-0.01,0
	c0-2.6-0.01-5.19,0-7.79c0.01-1.62-0.58-2.48-2.39-2.48c-5.83,0-11.6,3.8-12.32,8.24c-0.84,5.18,2.32,9.12,9.03,11.22
	c0.75,0.24,1.52,0.45,2.29,0.62c2.21,0.48,3.51-0.15,3.42-2.69C958.78,539.4,958.84,537.02,958.84,534.65z"/>
<path class="st3" d="M965.08,311.15c7.56,0,15.12-0.03,22.67,0.03c1.42,0.01,3.36-0.7,3.57,1.87c0.19,2.32-1.02,2.98-3.07,2.89
	c-0.64-0.03-1.47-0.04-1.7,0.76c-0.23,0.81,0.55,1.11,1.06,1.52c8.89,7.19,7.79,17.02-2.81,21.64c-13.04,5.68-26.33,5.48-39.42-0.11
	c-3.69-1.58-6.84-4.14-8.08-8.18c-1.6-5.2-0.03-9.32,4.42-12.83c0.73-0.58,2.17-0.83,1.76-2.12c-0.32-1.01-1.55-0.73-2.4-0.71
	c-1.93,0.03-2.56-0.93-2.51-2.74c0.06-2,1.4-2.02,2.81-2.02c7.9,0,15.79,0,23.69,0C965.08,311.14,965.08,311.14,965.08,311.15z
	 M964,338.28c6.47,0.08,11.75-0.17,16.68-2.59c3.49-1.71,5.9-4.24,5.98-8.31c0.08-3.81-2.02-6.51-5.3-8.01
	c-10.61-4.85-21.43-4.97-32.16-0.48c-3.38,1.41-5.64,4.23-5.56,8.21c0.08,4.1,2.47,6.61,5.98,8.3
	C954.54,337.77,959.78,338.32,964,338.28z"/>
<path class="st3" d="M965.47,256.04c5.39,0.12,10.6-0.44,15.31-3.41c7.17-4.52,8.43-11.02,3.42-17.82c-0.57-0.77-1.83-1.4-1.28-2.53
	c0.53-1.09,1.81-0.66,2.78-0.69c4.22-0.14,5.49,1.02,7.19,5.59c0.71,1.92,0.13,5.12,2.44,5.49c2.69,0.44,1.95-2.98,2.98-4.54
	c2.34-3.57,8.65-4.89,13.53-2.55c4.27,2.05,6.06,6.55,4.31,11.08c-0.57,1.47-1.31,2.88-2.1,4.24c-0.67,1.16-1.86,1.26-2.99,0.88
	c-1.38-0.46-1.01-1.62-0.7-2.57c0.56-1.73,0.9-3.48,1.02-5.3c0.19-3.04-1.2-4.69-4.17-5.07c-2.92-0.37-5.54,1.11-5.81,3.83
	c-0.26,2.62-1.5,3.29-3.75,3c-2.49-0.32-3.82,0.73-4.83,3.09c-2.69,6.28-8.29,9.12-14.41,10.76c-10.79,2.91-21.51,2.54-31.72-2.41
	c-9.33-4.52-12.65-14.21-8.06-22.7c1.12-2.08,5.86-3.5,7.71-2.15c1.71,1.24-0.09,2.18-0.61,3.05c-3.91,6.52-2.91,12.72,2.93,16.6
	c3.04,2.02,6.43,3.3,10.08,3.71C960.96,255.88,963.22,255.91,965.47,256.04z"/>
<path class="st3" d="M968.37,225.76c-10.87,0.27-18.32-1.28-24.72-6.07c-9.69-7.26-9.17-18.97,1.31-24.96
	c13.28-7.6,26.95-7.64,40.24-0.02c10.56,6.06,11.25,16.57,2.03,24.4C982.09,223.47,974.96,225.65,968.37,225.76z M964.9,220.54
	c6.23,0.09,12.16-0.97,17.26-4.86c5.88-4.49,6.03-11,0.44-15.82c-1.75-1.5-3.74-2.57-5.87-3.29c-10.17-3.43-20.11-3.37-28.91,3.46
	c-5.93,4.6-5.35,11.57,0.76,15.96C953.46,219.5,958.99,220.68,964.9,220.54z"/>
<path class="st3" d="M964.9,298.77c-7.57,0-15.15,0.02-22.72-0.02c-1.5-0.01-3.32,0.41-3.55-2.03c-0.22-2.32,1.2-2.58,2.95-2.62
	c0.54-0.01,1.24-0.04,1.3-0.78c0.05-0.75-0.58-1.18-1.11-1.59c-2.2-1.7-4.01-3.66-4.63-6.47c-1.3-5.86,0.83-10.17,6.34-12.72
	c3.87-1.79,8-2.41,12.21-2.43c10.62-0.04,21.25-0.01,31.87,0c1.79,0,3.77-0.33,3.76,2.55c-0.01,2.8-1.87,2.61-3.72,2.61
	c-10.06,0.02-20.12,0.02-30.18,0.08c-2.93,0.02-5.86,0.16-8.66,1.29c-3.13,1.26-5.13,3.35-5.19,6.81c-0.07,3.6,1.55,6.29,4.85,7.88
	c3.53,1.7,7.3,2.41,11.17,2.45c9.38,0.11,18.76,0.1,28.14,0.18c1.59,0.01,3.59-0.51,3.62,2.25c0.03,2.82-1.9,2.57-3.74,2.57
	c-7.57,0-15.15,0-22.72,0C964.9,298.8,964.9,298.78,964.9,298.77z"/>
<path class="st3" d="M965.05,467.06c-7.57,0-15.13,0.02-22.7-0.02c-1.6-0.01-3.56,0.45-3.74-2.21c-0.16-2.36,1.35-2.49,3.04-2.55
	c0.54-0.02,1.23-0.03,1.34-0.75c0.12-0.79-0.58-1.18-1.1-1.57c-2.23-1.65-4.05-3.59-4.74-6.38c-1.66-6.72,2.28-12.54,9.64-14.15
	c3.65-0.8,7.38-1.07,11.11-1.07c9.94,0.02,19.87,0.07,29.81,0.14c1.65,0.01,3.55-0.31,3.64,2.32c0.1,2.72-1.67,2.73-3.61,2.73
	c-10.05-0.01-20.1,0.02-30.15,0.03c-2.83,0-5.64,0.18-8.36,1.07c-3,0.99-5.23,2.76-5.65,6.08c-0.43,3.43,0.82,6.21,3.74,8.14
	c3.95,2.61,8.48,3.05,13,3.13c9.26,0.17,18.52,0.08,27.78,0.15c1.26,0.01,2.9-0.44,3.19,1.58c0.31,2.16-0.28,3.39-2.86,3.36
	c-7.79-0.11-15.58-0.04-23.37-0.04C965.05,467.05,965.05,467.06,965.05,467.06z"/>
<path class="st3" d="M942.39,559.68c10.84,0,21.67-0.06,32.51,0.03c4.07,0.03,8.09,0.63,11.91,2.23c4.45,1.87,6.92,5.24,6.87,9.52
	c-0.04,4.27-3.22,8.55-7.34,10.09c-2.38,0.89-3.88-0.56-5.42-1.84c-0.74-0.62-0.54-1.38,0.27-1.97c0.82-0.59,1.65-1.19,2.39-1.88
	c3.64-3.42,2.7-7.89-2.08-9.43c-3.45-1.12-7.04-1.51-10.68-1.51c-20.77,0.02-41.54,0.01-62.31-0.04c-1.43,0-3.3,0.73-4-1.47
	c-0.8-2.53,0.28-3.81,3.33-3.81c11.51-0.02,23.03-0.01,34.54-0.01C942.39,559.61,942.39,559.65,942.39,559.68z"/>
<path class="st3" d="M951.6,158.95c2.42,0.15,4.7-0.96,6.44-3.09c1.06-1.3,1.97-2.75,2.81-4.21c5.59-9.65,16.01-12.85,26.17-8.01
	c4.83,2.3,7.4,7.15,6.48,12.21c-0.82,4.53-5.71,9.05-10.33,9.58c-2.29,0.26-3.3-1.49-4.05-2.99c-0.86-1.72,1.07-1.85,2.09-2.32
	c1.58-0.72,2.96-1.67,3.99-3.05c2.82-3.79,1.35-8.35-3.16-9.68c-4.66-1.37-8.77-0.39-11.94,3.39c-1.66,1.98-2.96,4.26-4.51,6.34
	c-5.89,7.9-16.58,9.64-24.71,4.06c-3.64-2.49-5.06-6.37-3.91-10.67c1.02-3.78,5.68-7.9,9.2-8.12c2.09-0.13,3.08,1.41,3.77,2.88
	c0.71,1.51-0.91,1.72-1.86,2.22c-3.53,1.82-5,4.33-4.24,7.19C944.57,157.31,947.36,158.93,951.6,158.95z"/>
<path class="st3" d="M965.04,365.24c-7.56,0-15.11,0.03-22.67-0.02c-1.57-0.01-3.55,0.55-3.79-2.13c-0.24-2.66,1.34-2.95,3.37-2.93
	c0.74,0.01,1.75,0.11,1.94-0.91c0.21-1.12-0.88-1.49-1.59-1.93c-2.96-1.86-5.68-3.9-5.42-7.89c0.1-1.56-0.1-3.96,2.47-3.45
	c1.94,0.38,5.27-0.55,4.87,3.46c-0.37,3.74,1.95,5.82,4.91,7.35c4.17,2.17,8.63,3.27,13.34,3.29c8.34,0.05,16.69,0.06,25.03,0.11
	c1.73,0.01,3.77-0.51,3.83,2.41c0.06,3.13-2.12,2.62-3.97,2.62c-7.44,0.03-14.89,0.01-22.33,0.01
	C965.04,365.24,965.04,365.24,965.04,365.24z"/>
<path class="st3" d="M964.67,179.62c-7.55,0-15.1,0.01-22.65,0c-1.6,0-3.21,0.11-3.4-2.24c-0.18-2.36,1.02-2.87,3.04-2.86
	c9.24,0.03,18.48-0.01,27.72-0.02c6.31-0.01,12.62,0.02,18.93-0.01c1.78-0.01,3.08,0.25,3.04,2.53c-0.03,2.18-1.17,2.62-3.03,2.61
	C980.44,179.59,972.56,179.61,964.67,179.62z"/>
<path class="st3" d="M961.31,419.27c0-1.46,0.16-2.95-0.03-4.38c-0.47-3.46,1.2-4.13,4.27-4.03c2.64,0.09,3.62,0.96,3.5,3.57
	c-0.15,3.37-0.15,6.75-0.03,10.12c0.12,3.24-1.96,3.16-4.23,3.25c-2.31,0.09-3.7-0.48-3.52-3.14c0.12-1.79,0.02-3.6,0.02-5.4
	C961.3,419.27,961.31,419.27,961.31,419.27z"/>
<path class="st3" d="M918.32,180.69c-3.27,0.04-5.7-1.5-5.5-3.7c0.28-3.13,2.83-3.49,5.22-3.67c3.06-0.22,5.59,1.58,5.57,3.71
	C923.57,179.1,921.35,180.64,918.32,180.69z"/>
<path class="st4" d="M426.07,576.17c-4.86,0-9.72-0.14-14.58,0.05c-2.79,0.11-3.97-0.61-4.18-3.64c-0.88-12.4-2.12-24.77-3.04-37.16
	c-0.2-2.67-0.95-3.7-3.78-3.65c-10.62,0.16-21.25,0.12-31.87,0.03c-2.27-0.02-3.18,0.64-3.37,2.98
	c-0.95,12.17-2.14,24.32-3.03,36.49c-0.23,3.1-1.11,4.29-4.42,4.22c-9.71-0.21-19.44-0.15-29.16,0.01c-2.98,0.05-3.91-0.7-3.56-3.84
	c3.65-32.11,7.15-64.24,10.73-96.35c3.18-28.52,6.46-57.04,9.62-85.56c4.1-36.94,8.15-73.89,12.21-110.84
	c1.73-15.72,3.49-31.45,5.16-47.18c0.24-2.26,1.11-3.05,3.41-3.04c11.53,0.09,23.06,0.11,34.58-0.03c2.5-0.03,3.25,0.79,3.52,3.2
	c2.38,21.1,4.89,42.19,7.37,63.29c1.96,16.72,3.38,33.53,6.01,50.15c4.63,29.24,7.13,58.71,10.87,88.05
	c3.43,26.9,6.34,53.86,9.47,80.79c2.25,19.3,4.5,38.61,6.73,57.91c0.47,4.1,0.44,4.12-3.81,4.13c-4.97,0.01-9.95,0-14.92,0
	C426.07,576.17,426.07,576.17,426.07,576.17z M384.67,453.97c0,0,0-0.01,0-0.01c1.13,0,2.26,0,3.39,0c9.51-0.04,9.36-0.02,8.52-9.57
	c-1.89-21.47-3.6-42.96-5.41-64.44c-1.02-12.04-2.09-24.07-3.13-36.1c-0.16-1.8-0.4-3.23-2.83-3.34c-4.91-0.22-5.04-0.18-5.38,4.8
	c-1.09,15.76-2.23,31.53-3.35,47.29c-1.37,19.37-2.7,38.74-4.15,58.1c-0.19,2.61,0.72,3.42,3.2,3.31
	C378.57,453.86,381.62,453.97,384.67,453.97z"/>
<path class="st4" d="M468.2,469.86c1.62,2.67,3.17,5.39,4.88,8c3.35,5.12,6.88,10.13,12.21,13.43c7.72,4.77,15.47,1.92,18.96-6.46
	c4.37-10.47,3.89-20.67-0.67-30.88c-0.78-1.74-1.92-2.83-3.63-3.75c-11.93-6.46-22.44-14.38-27.84-27.52
	c-2.49-6.07-4.69-12.22-6.27-18.6c-4.95-19.89-6.34-40.13-6.01-60.53c0.4-24.73,3.33-49.14,10.28-72.93
	c4.19-14.35,9.96-27.93,21.2-38.39c6-5.59,12.83-9.33,21.44-7.78c5.77,1.04,10.38,4.21,14.43,8.32c4.61,4.69,7.87,10.4,11.77,15.63
	c1.78,2.39,1.8,5.2,1.44,8.11c-1.58,12.75-4.27,25.32-5.62,38.1c-1.04,9.89-2.43,19.74-3.7,29.6c-0.14,1.06,0.14,2.57-1.1,2.97
	c-1.37,0.44-1.77-1.16-2.41-1.97c-3.93-4.91-8.32-9.25-14.31-11.6c-6.88-2.7-12.84-0.23-15.97,6.51
	c-2.92,6.31-2.49,12.92-2.13,19.63c0.31,5.73,2.68,9.75,7.5,12.7c2.68,1.64,5.02,3.84,7.58,5.7c14.61,10.59,22.92,24.92,26.85,42.48
	c8.68,38.83,8.82,77.79,1.69,116.66c-2.87,15.64-7.47,31.17-15.84,45.13c-4.05,6.75-8.63,12.95-15.78,16.82
	c-6.23,3.37-12.45,3.47-18.87,0.61c-11.58-5.16-19.97-14.14-28.41-23.17c-3.23-3.45-4.07-6.81-3.33-11.55
	c3.62-23.44,6.8-46.96,10.14-70.44c0.22-1.55,0.51-3.09,0.77-4.64C467.71,470,467.96,469.93,468.2,469.86z"/>
<path class="st4" d="M765,356.41c0-72.01,0-144.03,0-216.04c0-4.96,0.01-4.96,5.03-4.95c8.48,0.01,16.96,0.18,25.43-0.06
	c3.29-0.09,4.53,0.96,5.01,4.19c2.72,18.44,5.61,36.86,8.47,55.28c4.95,31.81,9.94,63.62,14.87,95.43
	c4.63,29.92,9.19,59.86,13.79,89.79c0.12,0.78,0.36,1.55,0.44,2.33c0.2,2.12,1.7,2.02,3.22,2.01c1.64-0.01,2.13-0.94,2.13-2.4
	c-0.01-3.05,0-6.1,0-9.16c0.01-77.44,0.01-154.89,0.02-232.33c0-5.07,0-5.07,4.95-5.07c8.7,0,17.4-0.02,26.11,0
	c4.48,0.01,4.48,0.04,4.47,4.58c-0.18,100.05-0.36,200.11-0.53,300.16c-0.08,44.43-0.16,88.86-0.13,133.29
	c0,3.19-0.78,4.34-4.12,4.26c-8.92-0.21-17.86-0.13-26.78-0.02c-2.34,0.03-3.31-0.62-3.72-3.1c-5.96-35.99-12.06-71.96-18.1-107.94
	c-4.27-25.4-8.51-50.81-12.75-76.21c-2.45-14.71-4.87-29.42-7.3-44.13c-0.07-0.45-0.14-0.89-0.18-1.34
	c-0.17-1.77-1.3-2.16-2.85-2.09c-1.69,0.08-2,1.1-1.99,2.51c0.04,5.31,0.05,10.63,0.06,15.94c0.23,70.43,0.45,140.86,0.68,211.3
	c0.02,5.02,0.01,5.02-4.89,5.02c-8.82,0-17.63-0.14-26.44,0.08c-3.34,0.08-4.18-1.07-4.18-4.26c0.02-43.53-0.08-87.05-0.12-130.58
	c-0.03-28.83-0.01-57.66-0.01-86.49C765.38,356.41,765.19,356.41,765,356.41z"/>
<path class="st4" d="M133.63,441.25c3.62,6.37,6.94,12.53,11.09,18.17c2.88,3.92,5.78,7.84,9.93,10.55
	c5.27,3.45,9.62,2.81,13.15-2.41c7.31-10.83,8.56-22.85,6.26-35.43c-0.22-1.22-0.57-2.42-0.87-3.63c-1.5-5.9-3.88-10.63-9.74-14.1
	c-15.04-8.91-23.32-23.16-28.48-39.48c-9.27-29.37-11.27-59.59-10.85-90.12c0.37-26.17,3.05-52.11,8.06-77.79
	c3.49-17.87,7.91-35.51,15.52-52.16c3.16-6.92,6.82-13.51,12.31-18.93c9.29-9.16,19.5-9.52,29.08-0.67
	c8.39,7.75,13.61,17.67,18.03,28.01c1.34,3.14-0.06,6.5-0.42,9.71c-3.22,28.74-6.58,57.47-9.91,86.2c-0.06,0.52,0.06,1.14-0.89,1.65
	c-1.07-1.75-2.07-3.58-3.26-5.29c-3.93-5.68-7.79-11.48-14.95-13.59c-5.63-1.66-10.04,0.18-12.74,5.42
	c-4.38,8.53-3.57,17.7-3.49,26.88c0.09,9.09,4.2,15.27,11.16,20.67c8.39,6.5,15.85,14.04,21.14,23.49
	c6.16,11.01,9.66,22.86,11.67,35.2c5.95,36.55,6.55,73.31,4.44,110.19c-1.15,19.98-3.23,39.87-7.34,59.47
	c-3.27,15.62-7.18,31.07-15.47,44.98c-4.79,8.03-11.05,14.25-20.71,16.01c-5.08,0.93-9.65-0.72-13.89-3.19
	c-9.16-5.34-15.92-13.24-22.4-21.42c-9.45-11.93-9.26-11.91-7.47-26.92c2.4-20.08,4.45-40.2,6.65-60.3
	c1.02-9.32,2.04-18.64,3.08-27.96C132.44,443.47,132.45,442.43,133.63,441.25z"/>
<path class="st4" d="M572.02,469.76c2.16,3.42,4.28,6.86,6.51,10.24c2.63,3.99,5.69,7.62,9.61,10.4c7.77,5.53,15.98,2.89,19.79-5.84
	c4.56-10.47,3.81-20.66-0.48-30.89c-0.63-1.49-1.42-2.75-3-3.48c-18.62-8.59-28.96-23.59-34-43.07
	c-5.28-20.42-7.17-41.15-6.87-62.12c0.38-26.32,3.38-52.3,11.22-77.56c4.2-13.55,10.18-26.1,20.71-36.01
	c3.26-3.07,7.04-5.34,11.25-6.75c7.57-2.52,14.31-0.34,20.33,4.31c7.22,5.58,11.95,13.16,16.09,21.13c0.76,1.47,0.57,3.08,0.37,4.66
	c-1.88,15.02-3.74,30.04-5.63,45.06c-1.05,8.29-2.14,16.58-3.23,24.86c-0.12,0.92,0.39,2.32-0.92,2.57
	c-0.93,0.18-1.37-1.03-1.89-1.73c-3.69-4.97-8.05-9.16-13.72-11.81c-7.57-3.53-14.68-0.67-17.57,7.14
	c-3.07,8.29-2.07,16.68-0.37,25.07c0.27,1.32,1.18,2.11,2.19,2.89c4.21,3.23,8.34,6.58,12.59,9.76
	c13.64,10.18,21.9,23.59,25.42,40.3c5.66,26.85,7.08,53.95,5.92,81.26c-0.94,22.01-4.29,43.61-11.62,64.46
	c-3.81,10.83-8.67,21.12-17.05,29.33c-8.46,8.28-17.64,9.8-28.16,4.32c-11.78-6.13-20.61-15.65-28.85-25.8
	c-1.07-1.32-0.79-2.75-0.59-4.2c1.95-13.75,3.93-27.5,5.86-41.26c1.57-11.18,3.08-22.38,4.62-33.57c0.16-1.19,0.41-2.37,0.62-3.55
	C571.46,469.84,571.74,469.8,572.02,469.76z"/>
<path class="st4" d="M666.62,401.33c0-56.19,0-112.38,0-168.57c0-4.69,0-4.69,4.81-4.69c20.46,0,40.91,0.06,61.37-0.07
	c3.16-0.02,4.28,0.73,4.27,4.11c-0.12,27.36-0.11,54.72,0.02,82.08c0.01,3.23-0.84,4.28-4.15,4.21c-9.38-0.21-18.76,0.02-28.14-0.11
	c-2.71-0.04-3.5,0.86-3.47,3.51c0.13,11.53,0.18,23.06,0.05,34.59c-0.03,2.95,1.08,3.57,3.77,3.53c8.7-0.15,17.41-0.01,26.11-0.14
	c2.66-0.04,3.51,0.89,3.51,3.53c-0.07,26.12-0.06,52.23,0,78.35c0.01,2.58-0.73,3.57-3.47,3.52c-8.59-0.15-17.18,0.06-25.77-0.1
	c-2.75-0.05-3.44,0.88-3.41,3.49c0.12,11.76,0.12,23.52,0.03,35.27c-0.02,2.58,0.69,3.54,3.44,3.5c10.06-0.15,20.12,0.03,30.17-0.09
	c2.64-0.03,3.5,0.77,3.49,3.47c-0.09,27.13-0.09,54.27,0.01,81.4c0.01,2.81-1.01,3.37-3.55,3.36c-22.04-0.07-44.08-0.08-66.12,0.04
	c-2.93,0.02-2.97-1.44-2.97-3.56c0.03-22.27,0.02-44.55,0.02-66.82C666.62,470.52,666.62,435.93,666.62,401.33z"/>
<path class="st4" d="M290.85,454.45c0,38.78,0,77.56,0,116.34c0,4.59-0.02,4.59-4.6,4.6c-7.91,0.01-15.82,0.03-23.73,0.04
	c-4.38,0-4.39-0.01-4.39-4.51c0-50.2,0.01-100.4,0.01-150.6c0-27.59,0-55.18-0.01-82.76c0-4.29-0.02-4.27-4.27-3.76
	c-5.5,0.66-11.02,1.14-16.49,1.97c-2.75,0.42-3.54-0.38-3.52-3.11c0.1-12.89,0.03-25.78,0.03-38.67
	c-0.01-20.58,0.05-41.16-0.08-61.73c-0.02-3.12,0.6-4.29,4.03-4.27c24.3,0.14,48.6,0.12,72.9-0.03c3.44-0.02,4.41,0.99,4.39,4.39
	c-0.11,33.01-0.09,66.03-0.03,99.04c0.01,3.02-0.63,4.23-4.03,3.7c-5.35-0.83-10.8-0.95-16.18-1.63c-2.55-0.33-3.47,0.31-3.42,2.94
	c0.12,6.22,0.01,12.44,0.01,18.65c0,33.13,0,66.25,0,99.38C291.26,454.45,291.05,454.45,290.85,454.45z"/>
<path class="st3" d="M384.67,453.97c-3.05,0-6.1-0.11-9.14,0.03c-2.48,0.11-3.4-0.7-3.2-3.31c1.45-19.36,2.78-38.73,4.15-58.1
	c1.12-15.76,2.26-31.52,3.35-47.29c0.35-4.98,0.47-5.03,5.38-4.8c2.42,0.11,2.67,1.54,2.83,3.34c1.04,12.03,2.12,24.06,3.13,36.1
	c1.81,21.48,3.52,42.97,5.41,64.44c0.84,9.55,0.99,9.54-8.52,9.57c-1.13,0-2.26,0-3.39,0C384.67,453.96,384.67,453.97,384.67,453.97
	z M385.81,413.57c-0.17-2.7-0.35-5.41-0.52-8.11c0.28-2.31,0.22-4.57-0.97-7.67c-0.5,3.21-1.25,5.43-0.86,7.8
	c-0.07,0.8-0.14,1.6-0.21,2.4c-0.4,0.6-0.46,1.23-0.18,1.89c-0.11,0.52-0.22,1.04-0.34,1.56c-0.36,0.9-0.37,1.81-0.12,2.73
	c-1.06,11.1-2.12,22.2-3.18,33.3c-0.29,0.48-0.37,0.88,0.33,1.04c1.86,0.58,3.78,0.17,5.66,0.32c2.35,0.18,3.22-0.8,2.99-3.15
	c-0.45-4.56-0.76-9.13-1.13-13.69c0.42-0.52,0.42-1.02-0.07-1.5c-0.21-2.89-0.41-5.78-0.62-8.68l0.18-0.13l-0.22-0.08
	c-0.2-2.21-0.4-4.42-0.6-6.62C386.34,414.45,386.29,413.98,385.81,413.57z"/>
<path class="st4" d="M382.74,411.43c0.11-0.52,0.22-1.04,0.33-1.56c0.59-0.58,0.67-1.21,0.18-1.89c0.07-0.8,0.14-1.6,0.21-2.39
	c0.58-0.51,1.17-0.82,1.83-0.13c0.17,2.7,0.35,5.41,0.52,8.11c-0.4,0.51-0.31,0.98,0.16,1.4c0.2,2.21,0.4,4.42,0.6,6.62
	c0,0,0.03,0.22,0.03,0.22c0.21,2.89,0.41,5.78,0.62,8.67c-0.42,0.52-0.41,1.02,0.07,1.5c0.37,4.56,0.68,9.14,1.13,13.69
	c0.23,2.35-0.64,3.33-2.99,3.15c-1.88-0.15-3.8,0.26-5.65-0.31c0.14-0.43,0.06-0.79-0.34-1.04c1.06-11.1,2.12-22.2,3.18-33.29
	C383,413.27,383.17,412.37,382.74,411.43z"/>
<path class="st5" d="M385.29,405.46c-0.66-0.69-1.25-0.38-1.83,0.13c-0.39-2.37,0.36-4.59,0.86-7.8
	C385.51,400.89,385.57,403.15,385.29,405.46z"/>
<path class="st5" d="M385.97,414.96c-0.47-0.42-0.56-0.88-0.16-1.4C386.29,413.98,386.34,414.45,385.97,414.96z"/>
<path class="st5" d="M387.29,431.97c-0.48-0.48-0.49-0.98-0.07-1.5C387.71,430.95,387.71,431.45,387.29,431.97z"/>
<path class="st5" d="M383.25,407.98c0.49,0.68,0.42,1.31-0.18,1.89C382.79,409.21,382.85,408.58,383.25,407.98z"/>
<path class="st5" d="M382.74,411.43c0.43,0.93,0.26,1.84-0.12,2.73C382.37,413.24,382.38,412.33,382.74,411.43z"/>
<path class="st5" d="M379.44,447.46c0.4,0.25,0.48,0.61,0.34,1.04C379.07,448.34,379.15,447.93,379.44,447.46z"/>
<polygon class="st5" points="386.6,421.8 386.57,421.58 386.79,421.67 "/>
</svg>
