<svg enable-background="new 0 0 1366 768" viewBox="0 0 1366 768" xmlns="http://www.w3.org/2000/svg"><path d="m1365.2 768c-.1-1.7-.2-3.4-.2-5.1 0-252.2 0-504.5 0-756.7 0-1.1-.1-2.3 0-3.4.1-1.8-.7-2.5-2.3-2.5-1.2 0-2.5-.1-3.7-.1-451.2 0-902.3 0-1353.5 0-1.9.1-3.7-.2-5.5.6.2-.3-.3-.8.4-.7h2.7c453.2 0 906.3 0 1359.5-.1 2.7 0 3.3.4 3.3 3.2-.1 253.9-.1 507.8-.1 761.7 0 1 .8 2.3-.6 3.1z" fill="#8e959f"/><path d="m668.4 640.7c-187.2 0-374.3 0-561.5 0-26.1 0-52.2 0-78.3.1-3 0-4.5-.6-4-3.9.4-3.2-1.4-7.3.8-9.4 2-1.9 6.1-.5 9.2-.5h1128.8c1.6 0 3.2-.1 4.8 0 1.7.1 2.5-.5 2.4-2.3-.1-2.3 0-4.5 0-6.8 0-64.8 0-129.6.1-194.4 0-3.5-.7-5-4.6-5.7-9.7-1.7-17.7-7-25.2-13.2-16.7-13.9-26.3-32.5-34.2-52.1-10.1-25.1-15.3-51.5-18-78.4-2.7-27.8-2.3-55.6 1.6-83.2 4.4-31.6 12.4-62 28.6-89.9 2.4-4.1 5-8.1 7.8-11.9 6.5-8.9 14.5-16.5 24.1-22.1 19.1-11.2 37.8-9.5 55.4 4.4 13.2 10.5 22.3 24.2 29.8 39.1 7.7 15.3 12.8 31.5 17.3 48 9.6 34.7 11.1 70.1 9.1 105.8-.9 15.6-2.6 31.1-6.5 46.3-6.2 23.9-13.1 47.7-26.3 68.9-8.1 13.1-17.7 24.9-31.3 32.8-5.7 3.3-11.9 5.6-18.5 6.1-2.8.2-3.5 1.2-3.5 3.9.1 37.9.1 75.8.2 113.6 0 28.8.1 57.7.1 86.5 0 3.3.6 4.4 4.2 4.4 42.4-.1 84.8-.1 127.2-.1 4.5 0 4.5 0 4.5 4.3 0 2.2-.1 4.3 0 6.4.2 2.4-.8 3.1-3.1 3.1-11.3-.1-22.6 0-33.9 0-202.4.2-404.7.2-607.1.2z" fill="#cfdf90"/><path d="m341.2 360.3c-7.2-7.5-13.2-16-18.7-24.8-.7-1.6-.5-3.3-.5-5 0-34.8 0-69.5 0-104.3 0-4.8-.1-4.8-4.9-5-4.4-.1-8.8.4-13.2-.2 10-42.3 33.8-75.1 70-98.6 40.5-26.2 85-33.5 132.2-24.2 35.8 7.1 66.2 23.9 91.2 50.6 1.2 1.2 2.2 2.6 3.2 3.9-9.5-1.2-19-2.1-28.6-1-25.1 2.9-45.4 14.8-62.5 32.7-12.4 12.9-21.5 28.1-28.8 44.4-1.2 2.7-2.8 5.2-2.9 8.2-7 13.5-12.5 27.5-16.3 42.3-4.2 16.5-6.8 33.2-8 50.1-1.6 21.1-1.3 42.2 2 63.2 1.2 7.8 3.5 15.4 5.3 23.1-9.4-.3-18.7-1.8-27.9-3.4-.3-1.4-.7-2.9-.9-4.3-4.9-38.2-8.5-76.5-14-114.7-3.3-22.7-5.5-45.5-8.1-68.3-.3-2.9-1.4-3.8-4.2-3.8-14.6.1-29.2.1-43.7 0-3.1 0-4.1 1.2-4.4 4.1-1.1 10.6-2.3 21.1-3.6 31.7-3 26-6 52.1-9.2 78.1-1.2 8.4-1.5 16.9-3.5 25.2z" fill="#cfdf90"/><path d="m477.8 237.1c.1-3.1 1.7-5.6 2.9-8.2 7.2-16.3 16.4-31.4 28.8-44.4 17.1-17.9 37.4-29.8 62.5-32.7 9.7-1.1 19.1-.2 28.6 1 2.1 1.5 4.6 1.7 7 2.5 16.3 5.2 29.9 14.5 42.1 26.3 11.9 11.5 21.3 24.7 28.5 39.6-4.7.1-9.5.1-14.2.2-5 .1-5.4.4-5.3 5.5.2 21.2 0 42.5.4 63.7.6 25.2.3 50.4.3 75.6v66.8c-1.9 1.8-3.8 3.6-5.7 5.4-1.3-10.9-1.5-21.8-3.2-32.7-2.8-17.9-9.2-33.9-22.8-46.6-5.6-5.2-12-9.2-18.3-13.4-1.6-1-3-2.1-3-4.2 0-4.4-.4-8.8.7-13.2.9-3.4 1.6-7.4 5.6-8.2 3.6-.7 5.9 2.4 7.9 4.9 5.9 7.2 10.4 15.3 14.2 23.8.6 1.3.8 2.8 2.4 3.8.3-1 .7-1.7.8-2.4.8-6.3 1.6-12.5 2.4-18.8 1.7-14.1 3.4-28.3 5-42.4 1.5-12.2 2.9-24.4 4.3-36.6.3-2.4-.2-4.7-1.6-6.8-5.2-7.5-10.8-14.7-18-20.6-14.2-11.8-29.7-10.6-41.7 3.6-10.3 12.3-16.2 26.8-20.7 41.9-5.8 19.7-8.9 39.8-10.5 60.3-2 27.3-1 54.2 6.4 80.6 2.9 10.2 7.2 19.7 14.4 27.7 4.8 5.3 10.7 8.5 16.8 11.9 3.8 2.1 7.4 4.6 8 9.4.4 3.2.9 6.5.3 9.8-6.5 1.5-13 2.4-19.6 2.8-7.3-9.8-11.3-21.4-16.6-32.3-2.2 10-2.8 20.2-4.4 30.3-3.7-1-7.3-2-11-3-.1-1-.2-2-.2-3-.3-21-1.5-42-4.8-62.8-2.4-15-9.1-27.8-19.1-38.9-6-6.7-13.2-12-20.9-16.5-1.7-1-3.8-1.9-3.9-4.3-.4-5.5-.3-11.1 1.4-16.5 2-6.5 5.9-7.3 10.7-2.5 4.5 4.4 7.9 9.6 10.8 15.1 2.1 4 4 8.1 6.1 12.1.3.7.7 1.6 1.7 1.4s.9-1.2 1-1.9c.4-2.8.7-5.6 1-8.4.9-8.6 2.3-17.2 3.7-25.8 1.7-11 2.7-22.2 4-33.3 1.1-9.3 2.2-18.6 3.4-27.9.5-4-.2-7.5-2.8-10.8-5.3-6.8-11.2-13-17.6-18.7-12.4-11-26.9-10.7-38.8.8-3.5 3.3-5.9 7.6-9.4 11z" fill="#abc952"/><g fill="#da8a41"><path d="m477.8 237.1c3.5-3.4 5.9-7.7 9.4-11.1 11.9-11.5 26.4-11.8 38.8-.8 6.5 5.7 12.3 11.9 17.6 18.7 2.5 3.3 3.3 6.8 2.8 10.8-1.2 9.3-2.3 18.6-3.4 27.9-1.3 11.1-2.3 22.2-4 33.3-1.3 8.6-2.8 17.1-3.7 25.8-.3 2.8-.7 5.6-1 8.4-.1.8 0 1.7-1 1.9s-1.3-.8-1.7-1.4c-2-4-4-8.1-6.1-12.1-2.9-5.5-6.3-10.7-10.8-15.1-4.9-4.8-8.8-3.9-10.7 2.5-1.6 5.3-1.7 10.9-1.4 16.5.2 2.4 2.2 3.3 3.9 4.3 7.8 4.5 14.9 9.9 20.9 16.5 10.1 11.1 16.8 24 19.1 38.9 3.3 20.8 4.5 41.7 4.8 62.8 0 1 .1 2 .2 3-.2 5.9-.5 11.7-.8 17.6-.9 19.6-3.5 39-10.3 57.5-4.9 13.1-11.2 25.7-21.8 35.5-12.5 11.6-28.1 13.2-42.7 4.4-9.8-5.9-17.1-14.3-23.5-23.6-.7-1-1.4-2.1-2.1-3.1-.2-.2-.5-.3-1.3-.8.7 6.6 1.4 12.9 2.2 19.1.9 6.8.9 6.7-5.9 6.9-13.1.5-26.2.3-39.3.6-3.5.1-4.6-1.2-4.9-4.6-1-11.5-2.4-22.9-3.5-34.4-.3-2.8-1.3-4-4.2-3.9-5.9.2-11.8.2-17.6 0-3-.1-3.9 1.3-4.1 4-.6 11.1-1.4 22.1-2.1 33.2-.4 5.7-.3 5.7-5.8 5.7-14.7 0-29.4 0-44.1.1-2.9 0-4-.7-3.6-3.9 3-24.3 5.8-48.7 8.7-73 4-33.9 8-67.8 12-101.7 1.5-13 3-26 4.4-39.1.1-1.3 0-2.7-.1-4 2-8.3 2.3-16.8 3.4-25.2 3.2-26 6.2-52.1 9.2-78.1 1.2-10.6 2.5-21.1 3.6-31.7.3-2.9 1.3-4.1 4.4-4.1 14.6.1 29.2.1 43.7 0 2.8 0 3.9.9 4.2 3.8 2.6 22.8 4.8 45.6 8.1 68.3 5.5 38.1 9.1 76.5 14 114.7.2 1.5.6 2.9.9 4.3 0 1.4-.1 2.7.1 4 1.5 12.8 3 25.6 4.5 38.4 3.5 30 6.9 59.9 10.4 89.8.1 1.1 0 2.5 1.6 3.5.3-2.1.7-3.9.9-5.8 1.6-13 3.1-26 4.7-39 2.2-17.6 4.4-35.2 6.6-52.8.3-2.4.5-4.7.8-7.1.1-.5.2-1.2.9-1.3s.9.5 1.1 1c.5 1.1.9 2.3 1.4 3.5 4.7 11.1 9.7 22.2 17.2 31.8 2 2.6 4.1 5.1 7 6.8 3.4 1.9 5.8 1 7.4-2.5 1.8-4 1.8-8.4 2.3-12.6 1.2-9.8-2.5-16.5-11.6-20.6-12.6-5.6-20-16.2-25.1-28.5-.7-1.8-1.1-3.7-2.4-5.2-1.8-7.7-4.1-15.3-5.3-23.1-3.2-21-3.5-42.1-2-63.2 1.2-16.9 3.8-33.7 8-50.1 4.2-14.7 9.7-28.8 16.7-42.3zm-94.2-8.4c0 .1 0 .1 0 0-4.1 0-8.1 0-12.2 0-7.9 0-8 0-8.9 7.7-3 26.6-6 53.2-9 79.8-2.8 24.9-5.5 49.9-8.2 74.8-3.1 28.2-6.3 56.4-9.5 84.5-3.6 32-7 64-10.7 96-.3 2.8.3 3.8 3.3 3.8 9.8-.2 19.7-.2 29.5 0 3.1.1 4-1.1 4.2-4 .9-12.2 2.1-24.3 3-36.5.2-2.5 1.1-3.2 3.6-3.2 10.5.1 21 .1 31.5 0 3 0 3.8.9 4 3.8.9 12.4 2.1 24.8 3.1 37.2.2 2.8 1.3 3.5 4 3.5 9.9-.1 19.9-.2 29.8 0 3.2.1 4-.9 3.7-4.1-2.2-17.8-4.1-35.7-6.2-53.5-3.1-26.1-6.1-52.3-9.4-78.4-3.9-31.4-6.7-62.8-11.5-94.1-3.2-21.1-5.1-42.4-7.6-63.6-2-16.8-4-33.6-5.9-50.5-.3-2.7-1.3-3.3-3.8-3.3-5.5.3-11.2.1-16.8.1zm83.9 241.3c-.3 1.6-.6 3.1-.8 4.7-3.4 23.6-6.6 47.2-10.2 70.8-.7 4.5 0 7.7 3.1 11 8.6 9.2 17.1 18.4 28.9 23.6 6.3 2.8 12.5 2.5 18.6-.7 6.2-3.3 10.5-8.5 14.2-14.2 9.6-14.9 13.4-31.9 17.7-48.7 1.4-5.5 2.2-11.3 2.7-17.1 2.9-33 2.9-65.8-4.6-98.3-4.1-17.5-12.2-32-26.8-42.6-2.6-1.9-5.1-4.1-7.9-5.9-4.5-2.9-7-6.6-7.3-12.1-.4-6.9-1-13.8 2.1-20.3 3.1-6.7 9.1-9.1 16-6.4 6 2.4 10.4 6.7 14.3 11.6.6.7 1 2.1 2.2 1.9 1.4-.3 1.1-1.8 1.2-2.8 2.7-23 5.9-45.9 9.4-68.7.4-2.5.1-4.8-1.4-6.8-4.1-5.6-7.6-11.7-12.6-16.7-9.9-9.8-21.7-10.6-32.6-2-1.4 1.1-2.8 2.4-4 3.6-7.9 8.1-13.1 17.8-16.9 28.3-6.4 17.9-9.8 36.4-11.6 55.2-3 31-2.4 61.8 5.8 92.2 5 18.6 15.4 32.4 32.9 40.8 1.6.8 2.7 1.9 3.4 3.5 4.3 9.7 4.8 19.3 1.4 29.6-3.2 9.8-13.6 14.4-23.2 5.3-4.8-4.6-8.4-10-11.7-15.7-.4-1.2-.6-2.5-2.3-3.1z"/><path d="m808.9 413.7c-1.2 2.3-.8 4.1-.8 5.9 0 52.2 0 104.5-.1 156.7 0 10.4.5 8.5-8.5 8.6-11.4.1-22.8.1-34.2.1-5.4 0-5.5 0-5.5-5.5-.2-46.7-.3-93.4-.5-140.1-.5-101.2-1-202.4-1.5-303.5 0-8.6-1.3-7.8 7.7-7.9 12-.1 24 .1 35.9-.1 3.5-.1 4.7 1.2 5.2 4.5 3.9 24.9 7.8 49.8 11.9 74.6 3 18.9 6.2 37.7 9.3 56.5 2.6 15.7 5.1 31.5 7.6 47.2.1.8.3 1.5.5 2.9 1.3-1.9 1-3.4 1-4.8 0-34 0-68.1 0-102.1 0-24.9.1-49.8-.1-74.6 0-3.3 1.1-4.3 4.3-4.2 12.4.1 24.9 0 37.3 0 5.8 0 5.8 0 5.8 5.7.1 43 .1 85.9.2 128.9.2 105.1.5 210.3.7 315.4 0 .8-.1 1.6 0 2.4.3 3-1.1 3.9-3.9 3.9-12.9-.1-25.8-.1-38.7 0-2.7 0-3.8-1.1-4.2-3.7-6-34.7-12.2-69.4-18.2-104.2-3.5-20.1-6.9-40.3-10.4-60.5-.2-.4-.4-.9-.8-2.1zm69.3-57.1h.7c0-72.2 0-144.5.1-216.7 0-3.4-1-4.5-4.4-4.4-8.6.2-17.2.1-25.8.1-5.4 0-5.4 0-5.4 5.4v232 7.8c0 1.7.5 3.7-2.4 3.9s-3-1.7-3.3-3.6c-.6-3.7-1.1-7.4-1.7-11-4.5-29.5-9.1-59-13.6-88.4-4.5-29-9-58-13.5-87.1-2.8-18.2-5.7-36.4-8.4-54.6-.5-3.4-1.8-4.4-5.2-4.3-8.6.2-17.2.1-25.8.1-4.4 0-4.5 0-4.5 4.5.1 35.1.1 70.1.2 105.1.1 66 .3 132 .4 198.1.1 43.4.2 86.8.1 130.2 0 3.2.8 4.3 4.2 4.3 8.8-.2 17.6-.1 26.4-.1 4.8 0 4.8 0 4.8-4.8-.2-64.3-.5-128.6-.7-193 0-11.3 0-22.6-.1-33.9 0-2.3.7-3.4 3.1-3.1 1.9.3 1.7 1.8 2 3.1 2.4 14.7 4.8 29.4 7.3 44.1 4.5 26.6 9 53.2 13.4 79.9 5.8 34.9 11.7 69.7 17.5 104.6.4 2.5 1.5 3.1 3.8 3.1 8.8-.1 17.6-.2 26.4 0 3.5.1 4.4-1 4.4-4.4 0-72.4 0-144.7 0-216.9z"/><path d="m166.6 440.5c0 .5 0 .1 0-.2 1.3-10.8-2.7-18.5-12.3-24.2-12.4-7.3-18.7-19.6-23.6-32.6-6.6-17.5-10-35.7-11.8-54.1-2.4-23.8-3.4-47.6-1.5-71.4 2.3-28.8 7.6-57.1 16.3-84.7 4.4-14.2 9.8-28 18.7-40.1 3.7-5.1 8.2-9.4 14.2-11.6 9.9-3.7 17.9.6 25.1 6.9 10 8.8 16.7 20.1 23.1 31.6.9 1.6.6 3.3.4 5-3.7 36.9-7.4 73.7-11.1 110.6-.2 1.7 0 3.7-2.5 3.6-2.6 0-5.8 1.4-7.3-2.4-2.2-5.8-4.6-11.6-7.7-17-2.2-3.8-4.2-7.8-8.5-9.8-3-1.4-4.8-.8-6.4 2.2-1.5 2.8-1.9 5.8-2.2 8.8-.7 5.6-.4 11.3-.3 16.9.1 2.5 1 4.2 3 5.7 13.2 9.6 23.5 21.7 30.6 36.5 5.5 11.4 9.1 23.4 10.9 35.9 5.2 34.8 6.8 69.7 5.7 104.8-.9 27.7-4 55.2-12.6 81.8-4.4 13.5-9.8 26.6-19.7 37.1-13.2 14-29.2 15.9-44.6 4.7-12.4-9-20.4-21.5-27.7-34.7-.8-1.4-.5-2.8-.4-4.3 3-31.4 6.1-62.8 9.1-94.1.9-9.2 1.8-18.4 2.7-27.7.1-1.5.5-2.8 2.3-2.6 2.3.3 5.4-1.4 6.6 2.3 2.4 7.2 5.1 14.3 8.3 21.1 2.7 5.7 5.5 11.4 9.8 16.2 1.8 2 3.6 4 6.6 3.5 3.2-.6 3.9-3.5 4.8-6 1.9-5.6 1.7-11.3 2-17.7zm-33 .8c-1.1 1.2-1.1 2.3-1.3 3.3-1 9.3-2 18.6-3.1 28-2.3 20.7-4.5 41.3-7 62-1.5 12.6-1.8 12.6 6 22.8.3.4.5.7.8 1.1 6.8 8.6 13.8 17.1 23.5 22.7 8.5 4.9 16.5 4.2 24.4-1.6 4.4-3.2 7.6-7.3 10.3-11.9 8.1-13.8 12-29 15.1-44.4 4.7-22.6 6.8-45.6 7.8-68.6 1.5-32.7.5-65.3-4.3-97.7-1.4-9.5-3.5-18.9-7.1-27.9-5.5-14-14.4-25.3-26.3-34.2-7.1-5.3-11.1-11.6-11.2-20.6-.1-8.1-.8-16.3 2.2-24.1 3.7-9.6 11.9-11.7 20-5.2 4.1 3.3 7.3 7.4 9.9 11.9.8 1.3 1.6 2.6 2.8 4.7.4-2.5.6-3.9.8-5.3 3.2-27.5 6.4-55 9.4-82.5.4-3.5 1.9-7.2.4-10.7-4.3-10-9.4-19.6-17.4-27.3-9.8-9.4-20.2-9.2-29.8.3-5.4 5.4-9 11.9-12.1 18.7-7.6 16.7-12.1 34.3-15.5 52.2-5 25.7-7.7 51.6-8.1 77.8-.4 30.4 1.6 60.5 10.8 89.8 5.2 16.5 13.4 30.8 28.6 39.8 5.9 3.5 8.2 8.2 9.7 14.1.3 1.1.6 2.2.8 3.3 2.4 12.3 1.2 24.1-5.6 35-3.9 6.2-8.7 7-14.6 2.7-3.8-2.8-6.6-6.5-9.3-10.2-3.8-5.6-7-11.7-10.6-18z"/><path d="m603.2 470.2c.5-3.3.1-6.5-.3-9.8-.7-4.8-4.3-7.3-8-9.4-6-3.4-12-6.6-16.8-11.9-7.2-8-11.5-17.6-14.4-27.7-7.5-26.4-8.4-53.4-6.4-80.6 1.5-20.5 4.6-40.6 10.5-60.3 4.5-15.1 10.4-29.6 20.7-41.9 11.9-14.2 27.5-15.4 41.7-3.6 7.1 5.9 12.7 13.1 18 20.6 1.4 2.1 1.9 4.3 1.6 6.8-1.4 12.2-2.9 24.4-4.3 36.6-1.7 14.1-3.3 28.3-5 42.4-.8 6.3-1.6 12.5-2.4 18.8-.1.7-.5 1.4-.8 2.4-1.5-1.1-1.8-2.5-2.4-3.8-3.8-8.5-8.3-16.6-14.2-23.8-2.1-2.5-4.4-5.6-7.9-4.9-3.9.8-4.7 4.7-5.6 8.2-1.1 4.4-.7 8.8-.7 13.2 0 2.1 1.4 3.2 3 4.2 6.3 4.1 12.7 8.2 18.3 13.4 13.5 12.6 19.9 28.7 22.8 46.6 1.7 10.8 1.9 21.8 3.2 32.7.4 10.5 1.1 21 1 31.5-.3 22.1-2.2 44-8.4 65.3-4.3 15-10.3 29.2-21.3 40.7-14.6 15.1-32.8 16.5-49.6 3.7-8.8-6.7-15.5-15.1-21.4-24.3-1-1.5-1-3.2-.8-4.9 3-23.8 5.9-47.5 8.8-71.3.3-2.7.5-5.4.7-8.1 1.6-10 2.2-20.2 4.4-30.3 5.3 11 9.3 22.5 16.6 32.3 2.2 4.8 5.6 8.7 9.8 11.7 3.3 2.4 6.6 1.3 8.1-2.6 1.3-3.8 2-7.7 1.5-11.9zm30.7-142.9c.6-.4.7-.9.8-1.5 2.8-22 5.6-43.9 8.3-65.9.4-3.2 1.7-6.6.2-9.7-4-8-8.8-15.6-16-21.2-7.2-5.5-15-7.2-23.5-3-3.2 1.6-6.1 3.5-8.6 5.9-10.3 10-16.1 22.5-20.3 35.9-5.7 18.2-8.5 36.9-10.1 55.9-1.9 23.1-1.3 46.1 2.6 68.9 1.5 8.8 4.2 17.3 7.1 25.8 5.1 14.8 15.8 24.1 29 31.2 1.5.8 3 1.5 3.8 3.2 5.2 11.5 5.5 22.9-.3 34.3-2.6 5-8.5 7.4-13.9 5.7-2.9-.9-5.3-2.5-7.5-4.5-4.8-4.4-8.2-9.9-11.5-15.4-.6-1-.8-2.9-2.3-2.5-1.2.4-.9 2.1-1 3.3-1.5 11.1-3 22.2-4.6 33.2-1.9 13.8-3.9 27.5-5.8 41.3-.2 1.4-.5 2.9.6 4.2 8.5 10.5 17.7 20.3 30.1 26.4 9.3 4.5 18 3.1 25.7-3.8 5.5-4.9 9.5-10.9 12.7-17.4 10.7-22 15-45.7 16.7-69.8 2-27.6 1-55.1-4.2-82.4-2.3-11.8-5.1-23.4-12.8-33.2-5.6-7.1-12.2-13.1-19.8-17.9-7.3-4.6-10.8-10.6-10.5-19.2.2-4.8.1-9.5 1.8-14 3-8 10.1-10.9 17.8-7.3 5.4 2.5 9.5 6.5 13.1 11 .6.9 1 2.2 2.4 2.5z"/><path d="m659.3 432.8c0-22.3.1-44.5 0-66.8 0-25.2.3-50.4-.3-75.6-.5-21.2-.2-42.5-.4-63.7-.1-5.1.4-5.4 5.3-5.5 4.7-.1 9.5-.1 14.2-.2 2.1.8 4.2.6 6.4.6 18.3 0 36.6 0 54.9-.2 3.2 0 4.3 1 4.3 4.2-.1 32 0 64 0 96 0 2.9-1.1 3.7-3.8 3.6-8.8-.1-17.6 0-26.5-.1-2.9 0-4.3.7-4.2 4 .2 6.5.2 13.1 0 19.7-.1 3.2 1.2 4.1 4.2 4.1 8-.1 16 .1 24.1-.1 2.9 0 4 .8 4 3.8-.1 30.1-.1 60.1 0 90.2 0 2.9-1 4-4 3.9-8.2-.1-16.5.1-24.8-.1-3.1 0-4.2 1-4.1 4.1.2 7 .1 14 0 21-.1 3.1 1.2 4.2 4.2 4.1 9.5-.1 19 .1 28.5 0 2.8 0 3.7 1 3.7 3.8-.1 31.3-.1 62.6 0 94 0 3.3-1.4 3.9-4.3 3.9-25.2-.1-50.4 0-75.6 0-5 0-5.1-.1-5.2-5.1-.2-38.4-.3-76.9-.5-115.3.2-9.3.5-18.8-.1-28.3zm7.3-31v51.5 118.4c0 2.2-.1 3.8 3.1 3.8 22-.1 44.1-.1 66.1 0 2.8 0 3.4-.9 3.4-3.5-.1-27-.1-54 0-81 0-2.9-1-3.6-3.7-3.6-9.9.1-19.9 0-29.8.1-2.6 0-3.6-.6-3.6-3.4.1-11.9.1-23.7 0-35.6 0-2.5.7-3.4 3.3-3.3 8.5.1 17-.1 25.4.1 2.9 0 4-.7 4-3.8-.1-25.9-.1-51.8 0-77.6 0-2.9-.9-4-3.9-3.9-8.6.2-17.2 0-25.8.1-2.7 0-3.8-.6-3.8-3.5.1-11.5.1-23.1 0-34.6 0-2.9 1.1-3.6 3.8-3.6 9.3.1 18.5-.1 27.8.1 3.2.1 4.2-.9 4.2-4.2-.1-27.4-.1-54.7 0-82.1 0-3.4-1.2-4.1-4.3-4.1-20.5.1-40.9.1-61.4.1-4.7 0-4.7 0-4.7 4.8-.1 56.2-.1 112.5-.1 168.8z"/><path d="m303.9 221.1c4.4.6 8.8.1 13.2.2 4.9.1 4.9.1 4.9 5v104.3c0 1.7-.2 3.4.5 5-1 1.7-.8 3.5-.7 5.3.1 2.6-1 3.4-3.5 3.1-4.9-.7-9.9-1.3-14.8-1.9-4.8-.6-4.8-.5-4.8 4.5v150.3 78.7c0 6.5-.1 6.6-6.7 6.5-12.5-.2-25.1-.5-37.6-.5-3.5 0-4.4-1.3-4.4-4.6.1-39.1 0-78.2 0-117.4 0-37.2 0-74.4 0-111.6 0-5.6 0-5.7-5.6-5.3-4.6.3-9.2.8-13.8 1.3-3.3.4-4.3-.9-4.3-4.1-.1-31.4-.4-62.9-.7-94.3-.1-6.7 0-13.3-.3-20-.1-3.3 1.1-4.2 4.3-4.2 23.1.1 46.1.1 69.2.1 1.8-.1 3.4-.3 5.1-.4zm-13.1 233.4h.6c0-22.2 0-44.3 0-66.5 0-17.1.1-34.1 0-51.2 0-2.9.8-3.7 3.7-3.3 5.4.8 10.8.9 16.2 1.6 3 .4 3.8-.5 3.7-3.3-.1-33.4-.1-66.7 0-100.1 0-2.8-.9-3.7-3.7-3.7-24.8.1-49.5.1-74.2 0-2.6 0-3.3.9-3.2 3.3.1 9.3.1 18.5.1 27.8 0 24.3.1 48.6 0 72.9 0 3.2.9 4.1 4.1 3.6 5.7-.9 11.4-1.3 17.1-2.2 2.2-.3 3.2.2 3.1 2.5-.1 1 0 2 0 3v202.1 30.9c0 2.5.8 3.4 3.3 3.3 8.2-.2 16.5-.1 24.8-.1 4.6 0 4.6 0 4.6-4.6-.2-38.5-.2-77.3-.2-116z"/><path d="m965.4 479.4h22.3c1.4 0 3.4-.6 3.5 1.9.2 2.4-1.2 2.8-3.2 2.9-.7 0-1.8-.2-1.9.9 0 .4.6.9 1 1.2 9.2 7.2 8.2 16.7-2.4 21.9-7.7 3.8-16 4.5-24.5 3.7-5.4-.5-10.8-1.4-15.6-4.2-3.2-1.8-6.1-4-7.4-7.6-1.8-4.9 0-9.7 4.8-13.3.7-.5 1.9-.7 1.6-1.8-.2-.9-1.3-.7-2.1-.7-1.8 0-3.1-.4-3.1-2.6 0-2.5 1.8-2.2 3.4-2.2 8-.2 15.8-.1 23.6-.1zm0 27.3c5.9-.2 11.5-.4 16.4-3.4 6.8-4.1 6.8-12.2-.4-15.6-10.5-5.1-21.4-5.1-32.2-.7-3.4 1.4-5.7 4.1-5.8 8.1s2.2 6.4 5.5 8.3c5.3 2.9 11.1 3 16.5 3.3z"/><path d="m965.3 531.6v10.2c0 2.5 1.1 3.4 3.5 3.2 4.4-.3 8.8-1.1 12.7-3.3 7.3-4.1 7.3-11.8 0-16-1.3-.7-2.6-1.3-4-1.9-.9-.5-2.7-.4-2.1-2 .5-1.5 1.6-3.1 3.7-3 5.8.3 13.1 6.7 14.2 12.4s-1.7 11.1-7.3 14.4c-5 3-10.5 4.2-16.2 4.6-8.9.6-17.6-.2-25.6-4.6-4.7-2.6-7.8-6.5-7.5-12.3.2-5.5 3.7-8.8 8.2-11.1 5.3-2.7 11.1-3.5 17.1-3.7 2.4-.1 3.2 1.1 3.1 3.3.1 3.3.1 6.5.2 9.8zm-6.4 3c0-1.1 0-2.3 0-3.4 0-7.6-1.2-8.4-8.4-5.5-3.5 1.4-6.3 3.6-6.5 7.8-.3 4.3 2.1 7 5.6 8.9 2 1.1 4.1 1.8 6.4 2.1 2 .3 3-.5 3-2.5-.1-2.4-.1-4.9-.1-7.4z"/><path d="m985.3 316.8c1.4.9 2.5 1.6 3.6 2.4 5.7 4.3 6.2 11.3 1.4 16.5-3.5 3.8-8 5.6-12.7 6.6-9.7 2.1-19.5 2-29-1.3-2.7-.9-5.2-2.2-7.3-4.1-6.3-5.6-6-13.4.8-18.4.7-.5 2-.8 1.8-1.8-.2-1.4-1.6-.9-2.5-.9-1.7-.1-2.8-.6-2.7-2.6 0-2.3 1.6-2.1 3.1-2.1h42.3 5.1c1.3 0 2.1.6 2.1 2s-.3 2.4-2 2.6c-1.2.2-2.5-.1-4 1.1zm-19.6 21.6c4.8.2 9.7-.2 14.4-2.3 3.8-1.7 6.5-4.2 6.6-8.6.1-4.3-2.5-7.1-6.1-8.6-10.1-4.2-20.5-4.4-30.7-.4-3.8 1.5-6.4 4.3-6.4 8.8.1 4.3 2.8 6.7 6.4 8.4 5 2.3 10.2 2.7 15.8 2.7z"/><path d="m948.1 399c-13.2 0-26.5-.1-39.7.1-3.1 0-4.1-1-4-4.1.2-6.5.2-13.1 0-19.7-.1-2.9.9-4 3.9-4 3.2 0 3.8 1.4 3.7 4.2-.2 5 0 10-.1 14.9 0 2.5 1 3.4 3.5 3.4 6.8-.1 13.6-.1 20.3 0 2.5 0 3.4-1.1 3.4-3.5-.1-4.8.1-9.5 0-14.2-.1-2.7.8-3.8 3.7-3.8 2.7 0 3.9.9 3.8 3.7-.2 4.5.1 9-.1 13.6-.1 3.3 1.2 4.3 4.4 4.3 12.3-.1 24.6-.1 37 0 1.5 0 3.3-.5 3.5 2 .2 2.7-1.2 3.1-3.5 3.1-13.4-.1-26.6 0-39.8 0z"/><path d="m966.2 225.8c-8.8.2-16.2-1.4-22.5-6.1-9.7-7.2-9.2-18.9 1.4-24.9 13.2-7.5 26.8-7.5 40 0 10.7 6.1 11.4 16.9 1.7 24.6-6.3 5-13.8 6.4-20.6 6.4zm-.9-31.4c-6.4.2-12.6 1.1-17.7 5.6-5.6 5-5.2 11.7.9 16 8.5 6 23.8 6.3 32.5.5 7.8-5.1 7.6-13.4-.5-18.2-4.6-2.7-9.7-3.9-15.2-3.9z"/><path d="m965.8 256.4c5.2-.1 10.1-.6 14.7-3.4 7.5-4.5 8.9-11.2 3.7-18.3-.5-.7-1.6-1.3-1.2-2.3.5-1.1 1.8-.8 2.7-.8 4.1-.1 5.5 1.1 7.2 5.7.7 1.9.1 5.1 2.5 5.4 2.7.4 2-3 3-4.6 2.4-3.6 8.7-4.8 13.6-2.5 4.1 2 5.8 6.6 4 10.9-.6 1.5-1.2 2.9-2 4.3-.7 1.1-1.9 1.3-3 .8s-.8-1.5-.5-2.4c.6-1.8.9-3.7 1-5.6.1-2.9-1.3-4.4-4.1-4.8-3-.4-5.6.9-5.9 3.6-.3 2.8-1.8 3.3-4.1 3.1-1.6-.1-3.2-.2-3.9 1.8-2.7 7.5-9 10.6-15.9 12.3-9.4 2.4-18.8 2-28-1.4-10.7-4-15.5-13.6-11.3-22.8 1.4-3.1 4.3-4.4 7.5-3.3 1 .3 1.3.8.9 1.8 0 .1-.1.2-.2.3-3 4.2-4.5 8.8-1.7 13.6 3.2 5.3 8.6 7 14.3 7.9 2.1.4 4.4.5 6.7.7z"/><path d="m964.8 298.8c-7.6 0-15.1 0-22.7 0-1.4 0-3.1.3-3.4-1.8-.3-2.2 1.1-2.7 2.8-2.7.5 0 1.2-.1 1.3-.8.1-.9-.7-1.4-1.3-1.8-3-2.2-4.6-5.1-4.7-8.9-.1-5 2.4-8 6.7-10 3.2-1.5 6.7-2.2 10.2-2.2 11.4-.1 22.8 0 34.2-.1 1.6 0 3.3 0 3.3 2.4 0 2.5-1.7 2.5-3.5 2.5-10.2 0-20.3 0-30.5.1-2.9 0-5.9.2-8.7 1.3-3.1 1.3-5.1 3.4-5.2 6.8-.1 3.5 1.4 6.1 4.5 7.8 4 2.1 8.4 2.7 12.8 2.7 8.9.1 17.8 0 26.8.1 1.6 0 3.7-.6 3.7 2.1.1 2.8-1.9 2.6-3.8 2.6-7.4-.1-14.9-.1-22.5-.1z"/><path d="m965.1 467c-7.2 0-14.5 0-21.7 0-.9 0-1.8 0-2.7-.1-1.3-.1-2-.8-2-2.2s.5-2.1 1.9-2.3c.9-.1 2.4.4 2.7-.8.3-1.3-1.3-1.7-2.1-2.3-4.2-3.6-5.7-9.4-3.2-13.7 2-3.4 5.3-5.2 9-6.1 2.5-.6 5.1-.9 7.7-.9 11-.1 21.9-.1 32.9 0 1.6 0 3.6-.4 3.7 2.3s-1.9 2.6-3.7 2.6c-9.9 0-19.9 0-29.8 0-2.7 0-5.4.1-8 .9-3.2 1-5.8 2.8-6.2 6.4-.5 3.8 1.2 6.6 4.4 8.5 3.9 2.3 8.3 2.8 12.8 2.8 9.2.1 18.3 0 27.4.1 1.4 0 3.1-.2 3.2 2 .2 2.4-1.1 2.9-3.1 2.8-7.8 0-15.5 0-23.2 0z"/><path d="m993.5 154c0 5.4-4.9 10.7-10.3 11.4-2.3.3-3.4-1.4-4-2.9-.7-1.7 1.2-1.8 2.2-2.3 3-1.5 5.3-3.6 5.2-7.2 0-2.8-1.7-4.6-4.3-5.5-4.8-1.7-9.6-.2-12.9 4.1-1.4 1.8-2.5 3.8-3.8 5.6-5.8 7.8-16.3 9.6-24.4 4.2-3.7-2.4-5.2-6.3-4.2-10.6 1-3.8 5.5-7.9 9.1-8.2 2.1-.2 3 1.3 3.8 2.8.6 1.1-.6 1.5-1.4 1.9-4.5 2.5-6 5.4-4.4 8.5s7.5 4.4 11.3 2.4c1.6-.9 2.9-2.2 3.9-3.7.5-.8 1-1.5 1.4-2.3 5.8-9.8 14.8-12.9 25.4-8.7 4.8 1.7 7.5 5.6 7.4 10.5z"/><path d="m942 559.8h33.2c4 0 7.9.7 11.6 2.2 4.4 1.8 6.8 5.3 6.7 9.6-.1 4.1-3.2 8.3-7.2 9.8-2.4.9-3.9-.5-5.4-1.8-.6-.5-.4-1.2.2-1.7.7-.6 1.4-1.1 2.1-1.7 1.9-1.5 2.9-3.5 2.3-6-.6-2.4-2.5-3.4-4.6-4-3.4-1-6.8-1.3-10.4-1.3-20.7 0-41.4 0-62 0-1.4 0-3 .5-3.9-1.2-1.1-2.2.2-3.9 3.1-3.9z"/><path d="m965.1 365.2c-7.7 0-15.4 0-23 0-1.6 0-3.3.1-3.4-2.2-.1-1.7.6-2.5 2.3-2.6 1.2-.1 3 .5 3.3-.9.4-1.6-1.6-1.9-2.7-2.6-2.8-1.8-5-4-4.7-7.6.1-1.5.1-3.7 2.4-3.1 1.8.4 5.1-.6 4.8 3.2-.3 3.9 2 6 5.1 7.6 5.2 2.7 10.7 3.4 16.4 3.4h21.7c1.7 0 3.9-.6 4 2.3.1 3.1-2.3 2.5-4.1 2.5-7.4 0-14.7 0-22.1 0z"/><path d="m965 179.6c-7.5 0-15.1 0-22.7 0-1.9 0-3.7 0-3.6-2.7s2.1-2.2 3.7-2.2c15.1 0 30.2-.1 45.3 0 1.7 0 3.6-.3 3.6 2.3.1 2.8-1.8 2.7-3.7 2.7-7.5-.1-15.1-.1-22.6-.1z"/><path d="m961.3 419.4c0-1.4 0-2.7 0-4.1 0-4.4.3-4.5 4.7-4.3 2.2.1 3 1.1 2.9 3.1 0 3.5-.1 7 0 10.5.1 3.1-2 3-4.1 3.1-2.4.1-3.7-.6-3.5-3.2.1-1.7 0-3.4 0-5.1z"/><path d="m917.9 180.6c-2-.3-4.8-.3-5-3.5-.1-3.1 2.7-3.6 5.1-3.7 2.5-.1 4.9.4 5.4 3.5.4 2.1-2.1 3.7-5.5 3.7z"/></g><path d="m383.6 228.7c5.6 0 11.3.1 17-.1 2.5-.1 3.5.6 3.8 3.3 1.9 16.8 3.9 33.7 5.9 50.5 2.5 21.2 4.4 42.5 7.6 63.6 4.8 31.3 7.6 62.8 11.5 94.1 3.3 26.1 6.3 52.3 9.4 78.4 2.1 17.8 4 35.7 6.2 53.5.4 3.2-.4 4.2-3.7 4.1-9.9-.2-19.9-.1-29.8 0-2.7 0-3.8-.7-4-3.5-.9-12.4-2.1-24.8-3.1-37.2-.2-2.9-1.1-3.9-4-3.8-10.5.2-21 .1-31.5 0-2.4 0-3.4.7-3.6 3.2-.9 12.2-2.1 24.3-3 36.5-.2 3-1.1 4.1-4.2 4-9.8-.2-19.7-.2-29.5 0-3 0-3.6-1-3.3-3.8 3.6-32 7.1-64 10.7-96 3.1-28.2 6.3-56.4 9.5-84.5 2.8-24.9 5.5-49.9 8.2-74.8 3-26.6 5.9-53.2 9-79.8.9-7.8 1-7.8 8.9-7.7 3.8.1 7.9.1 12 0 0 .1 0 .1 0 0zm1 225.3c3.3 0 6.6-.1 9.8 0 2 .1 2.9-.6 2.7-2.8-.3-2.4-.4-4.7-.5-7.1-1.8-21.4-3.5-42.8-5.4-64.2-1-12-2.2-24.1-3.1-36.1-.3-3.6-2.4-3.3-4.9-3.4-2.6-.2-3.3 1.1-3.4 3.4-.2 4.3-.5 8.6-.9 12.9-1.4 18.9-2.8 37.9-4.1 56.8-.9 12.4-1.7 24.8-2.6 37.2-.2 2.6.6 3.5 3.2 3.4 3.1-.2 6.1-.1 9.2-.1z" fill="#fcfbfa"/><path d="m571 470c1.7.6 1.9 2 2.5 3 3.3 5.7 6.9 11.1 11.7 15.7 9.6 9.2 20 4.6 23.2-5.3 3.3-10.3 2.9-19.9-1.4-29.6-.7-1.6-1.8-2.7-3.4-3.5-17.4-8.4-27.9-22.3-32.9-40.8-8.2-30.4-8.8-61.1-5.8-92.2 1.8-18.8 5.1-37.4 11.6-55.2 3.8-10.6 8.9-20.2 16.8-28.3 1.3-1.3 2.6-2.5 4-3.6 10.9-8.6 22.7-7.8 32.6 2 5 5 8.5 11.1 12.6 16.7 1.5 2 1.7 4.3 1.4 6.8-3.5 22.8-6.7 45.8-9.4 68.7-.1 1 .2 2.5-1.2 2.8-1.2.2-1.6-1.1-2.2-1.9-3.9-4.9-8.3-9.3-14.3-11.6-6.9-2.7-12.9-.3-16 6.4-3 6.5-2.5 13.4-2.1 20.3.3 5.5 2.8 9.2 7.3 12.1 2.8 1.7 5.2 4 7.9 5.9 14.6 10.6 22.7 25 26.8 42.6 7.5 32.6 7.5 65.4 4.6 98.3-.5 5.7-1.2 11.5-2.7 17.1-4.3 16.8-8.2 33.8-17.7 48.7-3.7 5.8-8 10.9-14.2 14.2-6.1 3.3-12.2 3.5-18.6.7-11.8-5.2-20.4-14.3-28.9-23.6-3-3.3-3.8-6.5-3.1-11 3.6-23.6 6.8-47.2 10.2-70.8.1-1.5.4-3 .7-4.6z" fill="#fff"/><path d="m878.2 356.6c0 72.2 0 144.5.1 216.7 0 3.4-.9 4.5-4.4 4.4-8.8-.2-17.6-.1-26.4 0-2.3 0-3.4-.5-3.8-3.1-5.8-34.9-11.6-69.7-17.5-104.6-4.5-26.6-9-53.2-13.4-79.9-2.5-14.7-4.8-29.4-7.3-44.1-.2-1.3-.1-2.8-2-3.1-2.4-.4-3.2.7-3.1 3.1.1 11.3 0 22.6.1 33.9.2 64.3.5 128.6.7 193 0 4.8 0 4.8-4.8 4.8-8.8 0-17.6-.1-26.4.1-3.3.1-4.2-1.1-4.2-4.3 0-43.4 0-86.8-.1-130.2-.1-66-.2-132-.4-198.1-.1-35.1-.1-70.1-.2-105.1 0-4.5 0-4.5 4.5-4.5 8.6 0 17.2.2 25.8-.1 3.4-.1 4.7.9 5.2 4.3 2.7 18.2 5.5 36.4 8.4 54.6 4.5 29 9 58 13.5 87.1 4.6 29.5 9.1 59 13.6 88.4.6 3.7 1.1 7.4 1.7 11 .3 1.9.5 3.8 3.3 3.6 2.9-.2 2.4-2.2 2.4-3.9.1-2.6 0-5.2 0-7.8 0-77.3 0-154.6 0-232 0-5.4 0-5.4 5.4-5.4 8.6 0 17.2.1 25.8-.1 3.4-.1 4.4 1 4.4 4.4-.1 72.2-.1 144.5-.1 216.7-.3.2-.6.2-.8.2z" fill="#fcfbfa"/><path d="m133.6 441.3c3.6 6.2 6.9 12.3 10.9 17.9 2.7 3.8 5.5 7.5 9.3 10.2 5.9 4.3 10.7 3.5 14.6-2.7 6.8-10.8 8-22.6 5.6-35-.2-1.1-.5-2.2-.8-3.3-1.5-5.9-3.9-10.6-9.7-14.1-15.1-9-23.4-23.4-28.6-39.8-9.2-29.3-11.2-59.4-10.8-89.8.4-26.2 3.1-52.1 8.1-77.8 3.5-17.9 7.9-35.5 15.5-52.2 3.1-6.8 6.7-13.3 12.1-18.7 9.6-9.6 20-9.7 29.8-.3 8 7.7 13.1 17.3 17.4 27.3 1.5 3.5 0 7.2-.4 10.7-3 27.5-6.3 55-9.4 82.5-.2 1.4-.4 2.8-.8 5.3-1.3-2.1-2.1-3.4-2.8-4.7-2.6-4.5-5.8-8.6-9.9-11.9-8.1-6.6-16.2-4.5-20 5.2-3 7.8-2.3 16-2.2 24.1.1 9.1 4.1 15.4 11.2 20.6 11.9 8.9 20.8 20.2 26.3 34.2 3.5 9 5.6 18.4 7.1 27.9 4.9 32.4 5.8 65 4.3 97.7-1 23.1-3.1 46-7.8 68.6-3.2 15.4-7.1 30.6-15.1 44.4-2.7 4.6-5.9 8.7-10.3 11.9-7.8 5.7-15.9 6.5-24.4 1.6-9.7-5.6-16.7-14.1-23.5-22.7-.3-.4-.6-.7-.8-1.1-7.8-10.2-7.6-10.2-6-22.8 2.5-20.6 4.7-41.3 7-62 1-9.3 2-18.6 3.1-28-.1-.9-.1-1.9 1-3.2z" fill="#fcfbfa"/><path d="m666.6 401.8c0-56.3 0-112.6 0-168.9 0-4.8 0-4.8 4.7-4.8 20.5 0 40.9.1 61.4-.1 3.1 0 4.3.7 4.3 4.1-.1 27.4-.1 54.7 0 82.1 0 3.3-1 4.2-4.2 4.2-9.3-.2-18.5 0-27.8-.1-2.7 0-3.8.6-3.8 3.6.2 11.5.2 23.1 0 34.6 0 2.9 1.1 3.6 3.8 3.5 8.6-.1 17.2 0 25.8-.1 3-.1 3.9 1 3.9 3.9-.1 25.9-.1 51.8 0 77.6 0 3.1-1.1 3.8-4 3.8-8.5-.2-17 0-25.4-.1-2.6 0-3.3.8-3.3 3.3.1 11.9.1 23.7 0 35.6 0 2.7 1 3.4 3.6 3.4 9.9-.1 19.9 0 29.8-.1 2.7 0 3.7.7 3.7 3.6-.1 27-.1 54 0 81.1 0 2.6-.7 3.5-3.4 3.5-22-.1-44.1-.1-66.1 0-3.2 0-3.1-1.6-3.1-3.8 0-39.5 0-78.9 0-118.4.2-17.2.2-34.3.1-51.5z" fill="#fcfbfa"/><path d="m290.8 454.5v116.3c0 4.6 0 4.6-4.6 4.6-8.2 0-16.5-.1-24.8.1-2.5 0-3.3-.8-3.3-3.3.1-10.3 0-20.6 0-30.9 0-67.4 0-134.8 0-202.1 0-1-.1-2 0-3 .1-2.3-.9-2.9-3.1-2.5-5.7.8-11.5 1.2-17.1 2.2-3.2.5-4.1-.3-4.1-3.6.1-24.3.1-48.6 0-72.9 0-9.3.1-18.5-.1-27.8 0-2.5.7-3.3 3.2-3.3 24.8.1 49.5.1 74.2 0 2.8 0 3.7.9 3.7 3.7-.1 33.3-.1 66.7 0 100.1 0 2.8-.8 3.8-3.7 3.3-5.4-.8-10.8-.9-16.2-1.6-3-.4-3.7.5-3.7 3.3.1 17.1 0 34.1 0 51.2v66.5c0-.3-.2-.3-.4-.3z" fill="#fcfbfa"/><path d="m384.6 454c-3 0-6.1-.1-9.1 0-2.5.1-3.4-.8-3.2-3.4.9-12.4 1.7-24.8 2.6-37.2 1.4-18.9 2.8-37.9 4.1-56.8.3-4.3.7-8.6.9-12.9.1-2.3.8-3.5 3.4-3.4 2.5.1 4.6-.2 4.9 3.4.9 12.1 2 24.1 3.1 36.1 1.8 21.4 3.6 42.8 5.4 64.2.2 2.4.3 4.7.5 7.1.2 2.1-.6 2.8-2.7 2.8-3.3 0-6.6.1-9.9.1zm-.6-53.6c-.6 6.3-1.2 12.6-1.8 18.9-.9 8.8-1.7 17.5-2.6 26.3-.2 2.3.4 3.5 2.8 3.2.6-.1 1.1 0 1.7 0 4.4 0 4.5 0 4.1-4.2-.8-10.7-1.7-21.4-2.6-32.1-.3-4.1 0-8.2-1.6-12.1z" fill="#da8a41"/><path d="m384 400.4c1.6 3.9 1.3 8 1.6 12 .9 10.7 1.8 21.4 2.6 32.1.3 4.2.2 4.2-4.1 4.2-.6 0-1.1 0-1.7 0-2.5.3-3.1-.9-2.8-3.2 1-8.8 1.8-17.5 2.6-26.3.6-6.2 1.2-12.5 1.8-18.8z" fill="#fcfbfa"/><path d="m467.5 470c1.7.6 1.9 2 2.5 3 3.3 5.7 6.9 11.1 11.7 15.7 9.6 9.2 20 4.6 23.2-5.3 3.4-10.3 2.9-19.9-1.4-29.6-.7-1.6-1.8-2.7-3.4-3.5-17.4-8.4-27.9-22.3-32.9-40.8-8.2-30.4-8.8-61.1-5.8-92.2 1.8-18.8 5.1-37.4 11.6-55.2 3.8-10.6 8.9-20.2 16.9-28.3 1.3-1.3 2.6-2.5 4-3.6 10.9-8.6 22.7-7.8 32.6 2 5 5 8.5 11.1 12.6 16.7 1.5 2 1.7 4.3 1.4 6.8-3.5 22.8-6.7 45.8-9.4 68.7-.1 1 .2 2.5-1.2 2.8-1.2.2-1.6-1.1-2.2-1.9-3.9-4.9-8.3-9.3-14.3-11.6-6.9-2.7-12.9-.3-16 6.4-3 6.5-2.5 13.4-2.1 20.3.3 5.5 2.8 9.2 7.3 12.1 2.8 1.7 5.2 4 7.9 5.9 14.6 10.6 22.7 25 26.8 42.6 7.5 32.6 7.5 65.4 4.6 98.3-.5 5.7-1.2 11.5-2.7 17.1-4.3 16.8-8.2 33.8-17.7 48.7-3.7 5.8-8 10.9-14.2 14.2-6.1 3.3-12.2 3.5-18.6.7-11.8-5.2-20.4-14.3-28.9-23.6-3-3.3-3.8-6.5-3.1-11 3.6-23.6 6.8-47.2 10.2-70.8.1-1.5.3-3 .6-4.6z" fill="#fff"/></svg>